<svg width="558" height="715" viewBox="0 0 558 715" fill="none" xmlns="http://www.w3.org/2000/svg">
<path d="M354.937 34.9797C354.27 36.313 353.337 41.2464 352.803 46.0464C350.67 66.9797 351.47 65.513 341.47 70.0464C336.67 72.313 328.67 76.9797 323.737 80.313L314.67 86.4464L301.603 80.8464C294.403 77.6464 286.937 75.3797 285.203 75.6464C282.537 75.913 279.337 80.713 267.603 101.113C255.737 121.78 253.47 126.58 254.67 128.58C255.337 130.046 260.937 134.713 267.07 139.113L278.003 147.113V168.713V190.446L266.67 198.846C260.537 203.513 254.937 208.446 254.537 209.78C253.87 211.646 257.47 218.98 266.937 235.513C280.137 258.713 283.337 263.38 285.603 263.38C286.27 263.38 293.203 260.58 300.937 257.246L314.937 251.113L318.537 253.913C324.003 258.313 341.47 268.58 346.137 270.046C350.803 271.646 350.937 272.313 352.803 291.246C354.27 306.446 353.337 306.046 385.737 306.046C407.337 306.046 413.337 305.646 415.603 304.046C417.87 302.446 418.537 299.78 420.003 286.98L421.603 271.78L429.203 268.58C433.337 266.98 441.337 262.313 447.203 258.446L457.604 251.246L471.87 257.38C479.87 260.846 487.07 263.113 488.27 262.713C491.07 261.646 518.937 213.113 518.404 210.313C518.137 209.113 512.67 204.18 506.137 199.246L494.27 190.18L494.137 168.713L494.003 147.246L501.87 141.78C512.67 134.18 518.67 128.846 518.67 126.713C518.67 124.713 494.137 81.513 490.937 77.6464C488.003 74.313 484.27 74.8464 473.203 79.913C457.737 86.8464 458.137 86.8464 450.937 81.6464C444.003 76.5797 431.87 69.7797 425.737 67.6464C421.737 66.313 421.737 66.1797 420.003 51.2464C419.203 42.8463 417.737 35.2464 417.07 34.313C416.003 33.113 408.137 32.713 385.87 32.713C358.803 32.713 356.003 32.9797 354.937 34.9797ZM407.203 44.9797C407.603 45.913 408.537 52.9797 409.603 60.5797L411.337 74.4464L422.003 78.9797C427.87 81.3797 437.603 86.9797 443.737 91.3797C449.87 95.7797 455.604 99.3797 456.403 99.3797C457.337 99.3797 463.604 96.9797 470.537 93.913C480.803 89.3797 483.203 88.713 484.537 90.1797C486.803 92.713 504.003 122.98 504.003 124.446C504.003 124.98 499.203 129.113 493.203 133.513C487.337 137.78 481.87 142.313 481.337 143.38C480.67 144.446 480.803 148.046 481.337 151.38C482.937 159.38 482.937 180.046 481.337 186.713C479.737 193.646 481.203 195.78 493.87 204.846C499.47 208.846 504.003 212.58 504.003 213.113C504.003 215.513 484.537 248.58 483.07 248.713C482.137 248.713 476.003 246.313 469.337 243.38C462.67 240.446 456.803 238.046 456.27 238.046C455.737 238.046 451.07 241.113 446.003 244.846C436.137 252.046 425.337 257.913 416.937 260.58C411.337 262.446 411.07 263.113 408.803 281.113L407.337 293.38L386.403 293.78C362.403 294.18 364.803 295.646 363.337 278.713C362.003 264.313 361.337 262.98 353.737 260.046C342.937 256.046 335.337 251.78 326.137 244.713C321.337 241.113 316.937 238.046 316.403 238.046C315.87 238.046 309.737 240.446 302.937 243.38C296.137 246.313 290.003 248.713 289.337 248.713C288.67 248.713 286.537 245.913 284.537 242.313C282.537 238.846 278.003 231.113 274.403 225.246C270.937 219.246 268.003 213.78 268.137 213.246C268.137 212.58 273.203 208.446 279.337 204.046C285.603 199.646 290.937 194.98 291.337 193.78C291.737 192.58 291.47 187.513 290.537 182.58C289.603 176.846 289.337 169.38 290.003 162.18C291.737 141.246 292.67 143.78 279.737 134.046C273.337 129.246 268.137 124.98 268.137 124.58C268.003 123.246 288.003 89.3797 289.07 88.9797C289.603 88.8464 295.737 91.113 302.403 94.0464C309.203 96.9797 315.737 99.3797 316.803 99.3797C318.003 99.3797 321.737 96.9797 325.07 94.0464C330.937 88.713 353.07 76.713 356.803 76.713C360.137 76.713 362.403 70.713 363.337 59.3797C364.67 41.7797 362.403 43.3797 386.137 43.3797C401.47 43.3797 406.937 43.7797 407.203 44.9797Z" fill="black"/>
<path d="M374.67 123.913C365.603 126.58 360.27 129.646 353.47 136.58C343.603 146.313 340.803 153.513 340.803 168.713C340.803 178.98 341.337 182.58 343.737 187.78C347.737 196.58 357.203 206.18 366.27 210.713C373.07 214.18 375.47 214.58 386.003 214.713C396.27 214.713 399.07 214.18 405.337 211.113C409.337 209.246 415.337 205.113 418.537 201.913C441.337 179.38 435.07 141.513 406.27 127.38C396.403 122.58 383.87 121.113 374.67 123.913ZM394.27 135.38C415.47 140.046 426.937 164.713 416.937 184.18C411.203 195.513 401.87 201.913 389.337 202.98C358.537 205.78 340.003 169.78 360.403 146.58C370.003 135.646 380.137 132.313 394.27 135.38Z" fill="#F6861B"/>
<path d="M59.87 65.2465C42.27 75.3798 37.87 78.4465 37.6034 80.9798C37.3367 82.7131 39.3367 88.8464 42.0033 94.4465C44.5367 100.18 46.67 105.38 46.67 106.046C46.67 106.713 44.4034 110.446 41.7367 114.446C38.9367 118.313 35.2034 124.846 33.3367 128.846C31.47 132.846 29.47 136.446 28.8034 136.98C28.1367 137.38 22.67 138.18 16.8034 138.713C-0.663314 140.18 0.00335329 138.98 0.00335329 168.713C0.00335329 188.846 0.403353 194.18 1.87002 195.78C3.07002 196.846 7.87002 198.18 12.9367 198.58C29.3367 200.18 28.9367 199.913 34.27 210.446C36.8034 215.78 40.67 222.18 42.8033 224.846C44.9367 227.513 46.67 230.446 46.67 231.113C46.67 231.913 44.5367 237.38 42.0033 243.246C39.47 248.98 37.3367 254.98 37.3367 256.446C37.3367 258.446 40.4034 260.98 48.4034 265.78C71.87 279.646 80.9367 284.713 83.07 284.713C84.1367 284.713 87.6033 281.913 90.5367 278.313L96.0033 272.046V309.246V346.446L99.3367 352.18C101.47 355.913 104.537 358.713 108.403 360.58C113.737 363.113 116.403 363.38 145.07 363.38H176.003V372.046V380.713H169.603C154.937 380.713 142.403 387.913 134.937 400.446L131.337 406.713L130.937 452.046C130.537 491.913 130.803 498.046 132.803 503.246C135.603 510.58 142.67 518.446 150.537 523.113C156.403 526.58 157.603 526.713 180.003 527.38L203.337 528.046L207.337 543.38C209.603 551.78 211.87 559.513 212.403 560.313C213.203 561.646 219.603 562.046 236.537 562.046C260.537 562.046 262.67 561.513 262.67 556.046C262.67 550.713 260.403 550.046 240.403 550.046H221.47L220.003 544.313C219.203 541.246 218.003 536.58 217.203 534.046C216.537 531.513 216.003 528.98 216.003 528.313C216.003 527.78 233.47 527.38 254.67 527.38C276.003 527.38 293.337 527.78 293.337 528.18C293.337 528.713 292.003 533.78 290.403 539.513C288.003 548.58 287.203 550.046 284.67 550.046C279.203 550.046 277.337 553.913 277.337 565.513V576.18L255.337 591.113C243.337 599.38 233.07 606.046 232.67 606.046C232.27 606.046 232.003 598.98 232.003 590.313C232.003 576.18 231.737 574.18 229.337 572.046C227.07 570.046 226.137 569.913 223.337 571.113L220.003 572.713V597.246C220.003 620.58 220.137 622.046 222.67 623.38C226.137 625.246 226.137 625.113 253.603 606.446C265.87 598.18 276.137 591.38 276.537 591.38C276.937 591.38 277.337 598.846 277.337 607.913C277.337 621.246 277.737 624.98 279.47 626.58C281.87 629.113 283.203 629.246 286.803 627.38C289.203 626.046 289.337 624.18 289.337 594.18V562.313L293.337 561.646C297.603 560.713 297.07 561.78 302.803 539.113L305.603 527.646L327.203 527.113C351.337 526.58 354.937 525.513 364.27 515.78C374.403 505.246 374.67 504.18 374.67 455.246C374.67 404.446 374.403 402.98 363.337 391.78C355.603 384.18 347.07 380.713 335.737 380.713H329.337V372.18V363.513L361.737 363.113C391.47 362.713 394.403 362.446 398.67 359.913C406.67 355.246 409.337 348.846 409.337 333.78C409.337 320.58 408.003 316.713 403.337 316.713C398.803 316.713 397.337 320.713 397.337 333.38C397.337 353.513 414.803 351.38 252.67 351.38C115.47 351.38 115.07 351.38 111.47 348.58L108.003 345.913V304.98V264.046L123.07 263.78L138.003 263.646L145.737 274.18C150.67 280.846 154.403 284.713 156.003 284.713C159.737 284.713 201.203 260.446 202.137 257.78C202.537 256.446 200.403 249.913 197.47 243.246L192.137 231.113L196.537 224.98C199.07 221.513 202.937 214.846 205.337 210.046C207.737 205.246 209.737 201.246 210.003 201.113C210.137 200.846 215.337 200.046 221.47 199.38C240.27 196.98 238.67 199.78 238.67 168.846C238.67 137.913 239.87 140.18 223.203 138.713C217.337 138.18 211.87 137.38 211.07 136.98C210.27 136.446 208.003 132.713 206.003 128.713C204.003 124.713 200.003 118.046 197.337 114.046L192.27 106.58L197.47 94.3131C201.47 85.1131 202.403 81.3798 201.47 79.6465C200.137 77.2465 162.003 54.3131 157.603 53.2465C154.403 52.4465 153.337 53.5131 145.07 64.4465L137.737 74.3131H119.87H102.003L93.6033 63.5131C88.9367 57.6465 84.4034 52.7131 83.47 52.7131C82.67 52.7131 72.0033 58.3131 59.87 65.2465ZM89.3367 77.5131L96.67 87.6465L106.003 86.5798C111.203 86.0464 119.203 85.7798 124.003 86.0464C144.803 86.9798 142.537 87.7798 150.003 77.7798C153.603 72.8464 157.07 68.4465 157.603 67.9131C159.07 66.5798 188.003 83.3798 188.003 85.5131C188.003 86.5798 187.07 89.2465 186.003 91.3798C184.937 93.3798 182.803 98.1798 181.47 101.913L178.803 108.58L183.737 114.98C186.403 118.446 191.737 127.38 195.337 134.713L202.137 148.046L210.67 148.98C215.47 149.646 221.337 150.313 223.737 150.713L228.137 151.513L227.737 169.113L227.337 186.713L215.337 188.046C208.803 188.846 202.67 189.913 201.87 190.313C201.07 190.846 198.937 194.98 197.337 199.513C195.603 204.046 190.937 212.313 186.937 217.913C182.803 223.513 179.603 229.113 179.737 230.313C179.737 231.513 181.603 236.713 183.87 241.78C186.137 246.98 188.003 251.78 188.003 252.446C188.003 253.913 161.203 270.046 158.937 270.046C158.27 270.046 154.27 265.513 150.137 260.046L142.537 249.913L135.603 250.98C127.87 252.18 113.337 252.313 103.47 251.38L96.9367 250.713L89.6033 260.046C85.6033 265.113 81.6033 269.513 80.67 269.78C79.3367 270.046 53.3367 255.78 50.9367 253.513C50.8033 253.246 52.67 248.18 55.3367 242.18C57.87 236.046 60.0033 230.313 60.0033 229.38C60.0033 228.446 57.7367 224.846 54.9367 221.246C48.67 213.246 43.7367 204.846 40.67 196.313C39.3367 192.846 38.27 190.046 38.1367 189.913C38.1367 189.913 32.27 189.113 25.3367 188.18L12.67 186.713L12.27 169.113L11.87 151.646L15.6034 150.846C17.6034 150.446 22.9367 149.78 27.47 149.38C31.87 148.846 36.1367 148.046 36.8034 147.646C37.6034 147.113 40.9367 140.98 44.27 134.046C47.7367 127.113 52.5367 118.846 55.2034 115.78C57.87 112.846 60.0033 109.246 60.0033 108.18C60.0033 106.98 57.87 101.113 55.2034 95.2465C52.4034 89.5131 50.5367 84.4465 50.8033 84.1798C53.07 82.3131 79.6033 67.3798 80.67 67.3798C81.47 67.5131 85.3367 72.0464 89.3367 77.5131ZM317.337 372.046V380.713H252.67H188.003V372.046V363.38H252.67H317.337V372.046ZM349.47 395.78C353.203 397.78 356.67 401.113 358.937 404.846L362.67 410.713V453.646C362.803 494.713 362.67 496.846 360.003 502.046C358.27 505.38 354.803 508.98 351.07 511.513L344.803 515.38H252.67H160.537L154.27 511.513C150.537 508.98 146.937 505.38 145.07 501.78C142.003 496.18 142.003 495.246 142.003 454.046C142.003 413.513 142.137 411.913 144.937 406.58C147.47 401.78 154.803 395.513 160.003 393.646C161.07 393.246 202.803 392.846 252.803 392.846L343.603 392.713L349.47 395.78Z" fill="black"/>
<path d="M107.87 123.913C94.6699 127.38 83.3365 136.846 77.3365 149.38C72.6699 158.98 72.1365 174.713 76.0032 184.98C79.7365 195.113 89.8699 206.18 99.7365 210.98C106.537 214.313 108.803 214.713 120.003 214.713C131.203 214.58 133.47 214.18 139.87 210.846C159.737 200.58 170.137 178.713 164.803 158.18C158.27 132.713 132.67 117.246 107.87 123.913ZM136.537 138.58C152.67 148.046 159.07 168.313 150.803 184.446C147.337 191.246 137.603 199.78 130.937 201.78C107.47 208.846 85.4699 193.113 85.3365 169.113C85.3365 152.846 94.5365 140.446 110.67 135.246C117.07 133.113 130.137 134.846 136.537 138.58Z" fill="#F6861B"/>
<path d="M221.603 632.98C220.403 634.18 220.003 642.846 220.003 663.646V692.713L236.003 703.38C244.803 709.246 253.203 714.046 254.803 714.046C257.337 714.046 286.137 695.246 288.27 692.18C288.803 691.38 289.337 678.846 289.337 664.313V638.046L286.003 636.446C283.07 635.113 280.67 636.446 257.737 651.913L232.67 668.846L232.003 652.313C231.337 635.38 230.137 631.38 225.47 631.38C224.27 631.38 222.537 632.046 221.603 632.98ZM277.07 670.313L276.67 686.713L266.67 693.646C261.203 697.513 255.87 700.58 254.937 700.713C252.403 700.713 232.003 686.98 232.003 685.113C232.003 683.646 274.003 654.18 276.403 654.046C276.937 654.046 277.203 661.38 277.07 670.313Z" fill="black"/>
<rect x="142" y="392.713" width="221" height="122" rx="19" fill="white"/>
<path d="M267.512 120.52L290.549 139.414L290.675 193.994L267.532 212.733L289.191 248.13L316.461 236.588L322.549 241.294L332.231 248.721L343.443 255.269L362.194 264.326L367.166 294.266L406.987 293.97L412.614 264.782L430.839 256.378L458.437 237.134L475.498 244.427L487.356 248.556L506.108 213.89L506.323 213.084L484.68 195.439L485.525 174.46L483.829 141.958L507.992 122.634L487.863 86.359L459.278 97.9724L440.583 85.468L430.471 79.6546L412.015 71.1121L410.414 57.6844L408.143 41.9081L382.706 40.1023L367.222 41.4686L365.716 47.1146L364.042 63.104L358.24 71.8968L345.705 78.4035L337.544 83.0841L325.598 90.6189L316.498 97.205L301.851 90.5766L288.383 86.0044L285.913 88.7877L277.29 103.298L267.512 120.52Z" fill="white" stroke="white"/>
<circle cx="387" cy="169.713" r="50" fill="#F6861B"/>
<path d="M425 169.713C425 190.7 407.987 207.713 387 207.713C366.013 207.713 349 190.7 349 169.713C349 148.726 366.013 131.713 387 131.713C407.987 131.713 425 148.726 425 169.713Z" fill="white"/>
<path d="M51 84.2131L60 107.713L37 147.713L12 151.713L13 186.713L38 189.713L40.5 195.713L44.5 205.213L50 214.713L60 229.213L51 253.213L80.5 269.713L97 250.713L114 252.213L142.5 249.713L152 262.213L159 270.213L187.5 252.713L188 252.213L179.5 230.213L189 215.213L201.5 190.713L227.5 186.713L228 151.713L202 148.213L193.5 131.213L188.5 122.713L178.5 108.713L183 98.2131L188 85.7131L170 73.7131L158 68.2131L154.5 71.7131L146.5 82.7131L138.5 86.7131L126.5 86.2131H118.5L106.5 86.7131L97 87.7131L89 76.7131L81 67.7131L78 68.7131L65.5 75.7131L51 84.2131Z" fill="white" stroke="white"/>
<circle cx="123" cy="169.713" r="50" fill="#F6861B"/>
<path d="M161 169.713C161 190.7 143.987 207.713 123 207.713C102.013 207.713 85 190.7 85 169.713C85 148.726 102.013 131.713 123 131.713C143.987 131.713 161 148.726 161 169.713Z" fill="white"/>
<path d="M180 433H325.5V457C271.587 493.849 240.104 498.68 180 457V433Z" fill="#F6861B" stroke="white"/>
</svg>
