<svg width="544" height="414" viewBox="0 0 544 414" fill="none" xmlns="http://www.w3.org/2000/svg">
<path d="M364.46 394.635C364.46 397.795 364.46 400.955 364.46 404.115C364.46 405.915 362.97 407.755 362.02 406.265C360.02 403.105 358.83 405.565 357.21 406.075C350.9 408.075 343.63 407.075 343.78 397.735C343.85 393.405 343.78 389.085 343.78 384.735C343.78 383.395 343.67 381.985 345.7 382.005C347.73 382.025 347.7 383.295 347.7 384.705C347.7 388.865 347.8 393.035 347.7 397.185C347.59 400.645 348.7 403.185 352.39 403.615C356.31 404.055 359.53 402.485 360.12 398.325C360.71 394.165 360.39 390.045 360.65 385.905C360.74 384.505 359.54 382.115 362.31 382.045C365.36 381.965 364.31 384.535 364.39 386.125C364.58 388.965 364.47 391.805 364.46 394.635Z" fill="#656566"/>
<path d="M418.83 406.805C411.99 406.745 407.83 402.025 407.83 394.245C407.83 386.245 412.01 381.685 419.35 381.765C426.11 381.835 430.61 386.895 430.54 394.355C430.55 402.205 426.14 406.875 418.83 406.805ZM418.96 384.805C414.11 384.925 411.63 388.545 411.82 395.185C411.98 400.615 414.82 403.855 419.29 403.755C423.76 403.655 426.93 399.535 426.71 393.865C426.49 388.195 423.47 384.695 419 384.815L418.96 384.805Z" fill="#606061"/>
<path d="M308.77 406.815C301.58 406.875 297.16 402.125 297.14 394.295C297.12 386.465 301.25 381.845 308.21 381.745C315.17 381.645 319.83 386.515 319.83 394.285C319.83 402.055 315.61 406.755 308.77 406.815ZM315.77 394.195C315.77 388.285 313.06 384.845 308.42 384.815C303.78 384.785 301.01 388.375 300.91 394.135C300.82 400.065 303.91 403.895 308.62 403.755C313.33 403.615 315.83 400.185 315.83 394.195H315.77Z" fill="#626364"/>
<path d="M439.96 394.165C439.96 391.825 439.96 389.495 439.96 387.165C439.96 382.905 439.96 382.905 443.96 384.165C445.16 384.565 445.58 383.375 446.38 382.965C453.83 379.075 460.38 382.645 460.66 390.965C460.82 395.285 460.66 399.625 460.66 403.965C460.66 405.405 460.51 406.655 458.58 406.635C456.65 406.615 456.76 405.115 456.75 403.825C456.75 399.825 456.65 395.825 456.75 391.825C456.85 387.825 455.67 385.225 451.45 384.825C447.23 384.425 444.17 387.165 443.91 391.665C443.68 395.665 443.91 399.665 443.8 403.665C443.8 404.895 444.22 406.515 442.12 406.665C440.02 406.815 439.87 405.255 439.88 403.665C439.96 400.485 439.95 397.285 439.96 394.165Z" fill="#656566"/>
<path d="M278.93 406.795C277.44 406.665 275.42 407.055 273.55 405.995C273.087 405.807 272.705 405.46 272.473 405.017C272.241 404.574 272.172 404.064 272.28 403.575C272.61 402.035 273.87 402.675 274.7 402.855C276.97 403.335 279.22 404.145 281.57 403.615C283.31 403.225 285.36 402.925 285.74 400.695C286.12 398.465 284.5 397.465 282.74 396.695C280.62 395.765 278.49 394.855 276.38 393.905C273.56 392.625 271.68 390.595 272.19 387.315C272.73 383.855 275.28 382.315 278.49 381.915C281.11 381.615 283.81 381.395 286.38 382.415C287.38 382.805 288.94 382.785 288.38 384.545C287.96 385.955 286.81 386.085 285.56 385.805C283.47 385.335 281.43 384.335 279.23 385.005C277.84 385.435 276.17 385.675 275.9 387.535C275.63 389.395 276.72 390.255 278.25 390.885C280.25 391.705 282.16 392.625 284.13 393.465C287.42 394.875 290.13 396.965 289.43 400.895C288.65 405.065 285.51 406.815 281.36 406.795H278.93Z" fill="#626364"/>
<path d="M477.26 406.745C476.262 406.821 475.259 406.821 474.26 406.745C472.37 406.475 469.47 406.595 470.02 403.895C470.54 401.385 472.93 403.335 474.5 403.425C475.824 403.622 477.161 403.719 478.5 403.715C480.5 403.515 482.73 403.315 483.31 400.955C483.99 398.185 481.71 397.255 479.75 396.345C477.79 395.435 475.39 394.675 473.36 393.575C471.06 392.315 469.46 390.415 469.82 387.575C469.965 386.326 470.498 385.154 471.345 384.225C472.192 383.295 473.31 382.655 474.54 382.395C477.751 381.432 481.185 381.509 484.35 382.615C485.2 382.915 486.44 382.805 486.14 384.395C485.84 385.985 485.03 386.215 483.65 385.935C481.742 385.418 479.784 385.103 477.81 384.995C476.06 384.995 473.99 385.375 473.65 387.705C473.34 389.705 474.94 390.625 476.45 391.375C477.647 391.939 478.876 392.433 480.13 392.855C484.26 394.375 488.13 396.325 486.82 401.685C485.61 406.605 481.41 406.835 477.26 406.745Z" fill="#606061"/>
<path d="M372.021 384.575C372.951 382.455 374.571 382.475 375.461 381.575C376.851 380.105 377.751 370.575 379.831 381.395C380.061 382.615 382.56 381.895 384.01 382.025C385.2 382.125 386.571 382.085 386.401 383.755C386.261 385.155 384.881 384.945 384.031 384.755C379.271 383.935 378.94 386.685 379.24 390.285C379.44 392.765 379.24 395.285 379.3 397.765C379.3 401.315 380.301 404.095 384.701 403.675C385.811 403.565 386.701 403.675 386.611 405.135C386.541 406.135 385.931 406.435 385.031 406.705C380.241 408.165 376.18 405.625 375.8 400.585C375.52 396.945 375.7 393.275 375.62 389.585C375.57 387.145 376.831 383.875 372.021 384.575Z" fill="#606061"/>
<path d="M332.95 389.285C332.95 394.085 332.95 398.895 332.95 403.705C332.95 404.915 333.38 406.635 331.25 406.565C329.54 406.505 329.74 405.085 329.74 403.975C329.74 394.022 329.74 384.075 329.74 374.135C329.74 372.935 329.74 371.715 331.48 371.815C333.22 371.915 332.97 373.275 332.97 374.355C332.97 379.335 332.95 384.285 332.95 389.285Z" fill="#606061"/>
<path d="M394.83 394.285V384.285C394.83 383.045 395 381.925 396.66 381.965C398.32 382.005 398.5 383.115 398.5 384.355C398.5 391.022 398.5 397.665 398.5 404.285C398.5 405.525 398.22 406.625 396.59 406.605C394.96 406.585 394.83 405.495 394.83 404.285C394.83 400.945 394.83 397.625 394.83 394.285Z" fill="#6B6B6C"/>
<path d="M398.83 375.285C398.68 376.725 398.1 377.805 396.46 377.765C394.82 377.725 394.54 376.535 394.55 375.405C394.56 374.275 394.88 373.015 396.35 372.925C397.82 372.835 398.64 373.745 398.83 375.285Z" fill="#6B6B6C"/>
<path d="M182.96 126.775C182.96 125.125 182.83 123.455 182.76 121.775C182.83 115.125 182.76 108.475 183.04 101.835C183.2 98.345 181.75 97.755 178.68 97.835C164.38 97.955 150.07 98.005 135.77 97.835C132.27 97.835 131.63 99.065 131.77 102.145C131.98 107.545 131.83 112.935 131.83 119.145C127.41 114.985 123.91 111.235 119.94 108.065C102.46 94.115 82.11 91.285 60.64 93.455C50.57 94.455 40.64 96.275 31.79 101.685C24.51 104.685 18.79 109.685 14.11 115.815C3.10999 130.095 0.229983 146.815 0.169983 164.225C0.00998291 211.355 0.17 258.475 0 305.605C0 309.845 1.47999 310.485 5.14999 310.435C18.97 310.275 32.79 310.185 46.61 310.485C50.87 310.595 51.48 308.975 51.47 305.315C51.3567 275.675 51.3567 246.038 51.47 216.405C51.47 202.745 51.55 189.105 51.83 175.455C52.1 162.875 56.83 152.585 68.02 145.935C76.6302 142.694 85.9396 141.766 95.02 143.245C110.1 145.585 119.85 154.965 126.71 167.935C127.76 168.285 128.06 168.855 127.29 169.765L129.87 176.985C130.35 180.655 130.68 184.355 131.87 187.865C131.87 188.535 131.87 189.215 131.95 189.865C131.95 228.858 131.907 267.838 131.82 306.805C131.82 309.895 133.08 310.285 135.67 310.275C149.5 310.175 163.33 309.995 177.15 310.365C182.08 310.495 183.15 309.035 183.15 304.285C182.9 245.065 182.97 185.925 182.96 126.775Z" fill="#9D533D"/>
<path d="M241.83 336.285C242.78 341.545 242.21 346.865 242.25 352.145C242.38 371.775 242.3 391.405 242.5 411.035C242.5 413.225 241.82 413.885 240.11 413.605C237.96 413.265 234.9 415.305 233.93 411.525C233.825 410.864 233.802 410.192 233.86 409.525C233.86 386.232 233.86 362.942 233.86 339.655C233.86 338.445 233.21 336.955 234.72 336.045C234.72 344.495 234.87 352.955 234.72 361.395C234.65 365.055 237.18 365.465 239.56 365.625C242.45 365.825 241.75 363.285 241.76 361.625C241.88 353.155 241.83 344.705 241.83 336.285Z" fill="#F79C1F"/>
<path d="M383.61 352.585C383.61 349.425 383.61 346.265 383.61 343.095C383.61 341.655 384.61 339.615 385.55 340.905C387.97 344.075 389.4 341.325 391.19 340.685C393.66 339.805 396.39 339.435 398.43 340.905C401.21 342.905 403.08 342.725 406.12 341.065C412.21 337.735 417.97 341.295 418.39 348.245C418.67 352.885 418.47 357.565 418.5 362.245C418.5 363.675 418.36 364.905 416.44 364.885C414.28 364.885 414.71 363.305 414.7 362.065C414.7 357.905 414.7 353.745 414.7 349.585C414.7 346.185 413.64 343.585 409.7 343.525C405.76 343.465 403.31 345.445 403 349.345C402.69 353.245 403 356.995 402.79 360.815C402.72 362.305 404.04 364.975 400.79 364.815C397.79 364.645 399.07 362.085 398.99 360.545C398.79 356.725 398.83 352.895 398.85 349.065C398.85 345.715 397.56 343.555 393.96 343.565C390.61 343.565 388.29 344.925 387.64 348.565C386.85 353.035 387.24 357.565 387.09 362.005C387.09 363.245 387.51 364.835 385.36 364.865C383.21 364.895 383.59 363.345 383.57 362.085C383.59 358.915 383.61 355.745 383.61 352.585Z" fill="#626364"/>
<path d="M446.99 355.135C446.99 357.135 447.08 359.135 446.99 361.135C446.91 362.365 447.73 364.085 446.19 364.725C444.65 365.365 444.27 363.995 443.64 362.725C443.01 361.455 442.16 363.005 441.56 363.455C440.356 364.343 438.973 364.958 437.506 365.257C436.04 365.556 434.526 365.531 433.07 365.185C429.9 364.605 428.07 362.865 427.68 359.605C427.29 356.345 427.95 353.605 431.03 351.985C433.72 350.555 436.7 350.275 439.7 349.985C441.1 349.865 443.51 350.875 443.38 348.105C443.28 346.105 442.54 344.235 440.05 343.755C437.913 343.422 435.727 343.615 433.68 344.315C432.68 344.605 431.5 345.635 430.79 343.885C430 341.955 431.62 341.655 432.79 341.145C441.1 337.455 447 341.145 447.06 350.145C447 351.805 446.99 353.475 446.99 355.135ZM439.99 352.785C434.46 352.785 431.54 354.525 431.46 357.785C431.38 361.045 433.46 362.005 436.34 361.965C440.47 361.905 443.06 359.275 443.44 355.155C443.72 351.895 441.37 353.025 439.96 352.785H439.99Z" fill="#626364"/>
<path d="M522.5 352.735C522.5 349.575 522.55 346.415 522.5 343.245C522.5 341.385 523.9 339.635 524.87 340.935C526.99 343.775 528.23 341.625 529.87 340.935C537.2 337.935 542.87 341.605 543.01 349.565C543.07 353.885 543.01 358.215 543.01 362.565C543.01 363.815 543.01 364.895 541.25 364.885C539.49 364.875 539.25 363.985 539.25 362.655C539.25 358.325 539.25 353.995 539.25 349.655C539.25 346.205 538.06 343.735 534.25 343.535C530.62 343.335 527.69 344.375 526.71 348.445C525.64 352.895 526.29 357.445 526.06 361.875C525.99 363.055 526.65 364.725 524.46 364.875C521.95 365.005 522.52 363.135 522.46 361.765C522.45 358.735 522.5 355.735 522.5 352.735Z" fill="#606061"/>
<path d="M291.69 355.645C291.69 357.475 291.69 359.305 291.69 361.135C291.69 364.035 291.69 366.775 288.08 363.135C287.08 362.065 286.31 363.135 285.6 363.665C284.507 364.427 283.271 364.962 281.967 365.237C280.663 365.512 279.317 365.521 278.01 365.265C274.39 364.785 272.28 362.725 271.9 359.115C271.62 357.538 271.909 355.913 272.715 354.529C273.52 353.145 274.791 352.091 276.3 351.555C278.789 350.608 281.418 350.081 284.08 349.995C285.46 349.885 287.81 350.935 287.77 348.095C287.77 345.925 286.86 344.235 284.45 343.765C282.14 343.385 279.77 343.663 277.61 344.565C276.55 344.955 275.61 344.865 275.1 343.745C274.36 342.105 275.71 341.845 276.74 341.335C285.02 337.335 291.52 341.115 291.68 350.165C291.71 351.975 291.68 353.805 291.69 355.645ZM284.76 352.785C278.9 352.715 275.85 354.615 275.88 358.095C275.88 361.215 277.96 361.945 280.52 362.005C281.431 362.084 282.35 361.977 283.218 361.689C284.087 361.4 284.888 360.938 285.571 360.329C286.255 359.721 286.807 358.979 287.193 358.149C287.58 357.32 287.793 356.42 287.82 355.505C288.07 352.665 286.49 352.585 284.76 352.785Z" fill="#656566"/>
<path d="M373.931 352.935C373.881 360.625 369.661 365.385 362.831 365.455C355.831 365.525 351.621 360.685 351.651 352.555C351.651 344.685 355.721 340.085 362.651 340.025C369.581 339.965 373.981 345.035 373.931 352.935ZM355.511 352.535C355.511 358.945 357.951 362.135 362.901 362.035C367.621 361.955 370.061 358.765 370.051 352.675C370.041 346.585 367.561 343.505 362.771 343.455C357.981 343.405 355.551 346.345 355.511 352.535Z" fill="#626364"/>
<path d="M490.44 352.615C490.44 344.805 494.55 340.105 501.44 340.015C508.33 339.925 512.83 344.865 512.83 352.845C512.83 360.825 508.44 365.615 501.3 365.445C494.57 365.285 490.43 360.405 490.44 352.615ZM508.86 353.045C508.9 346.592 506.457 343.395 501.53 343.455C496.73 343.505 494.17 346.715 494.15 352.685C494.13 358.655 496.72 361.925 501.44 362.025C506.16 362.125 508.83 359.075 508.83 353.045H508.86Z" fill="#626364"/>
<path d="M322.74 352.745C322.74 355.075 322.74 357.395 322.74 359.745C322.74 363.895 322.74 363.835 318.58 363.095C317.93 362.975 317.14 363.655 316.42 363.975C307.48 367.975 301.88 364.315 301.87 354.475C301.87 350.985 301.87 347.475 301.87 344.015C301.87 342.675 301.23 340.815 303.67 340.725C306.47 340.625 305.75 342.725 305.77 344.225C305.83 348.225 305.77 352.225 305.77 356.225C305.77 359.225 306.77 361.555 310.04 361.905C313.31 362.255 316.36 362.115 317.88 358.335C319.64 353.975 318.31 349.465 318.88 345.055C319.06 343.555 317.54 340.975 320.63 340.825C323.72 340.675 322.63 343.275 322.7 344.825C322.83 347.425 322.74 350.095 322.74 352.745Z" fill="#626364"/>
<path d="M241.83 336.285C241.83 344.735 241.83 353.185 241.77 361.635C241.77 363.295 242.46 365.835 239.57 365.635C237.19 365.475 234.66 365.065 234.73 361.405C234.9 352.965 234.73 344.505 234.73 336.055C237.16 335.625 239.54 335.285 241.83 336.285Z" fill="#EF8D26"/>
<path d="M330.12 342.885C330.65 340.805 332.84 341.085 333.5 339.755C335.09 336.505 336.5 330.755 338.08 339.755C338.35 341.295 340.74 340.305 342.14 340.535C343.19 340.715 344.72 340.205 344.68 342.025C344.68 343.385 343.39 343.565 342.47 343.395C337.29 342.475 337.31 345.725 337.52 349.305C337.64 351.305 337.52 353.305 337.52 355.305C337.45 359.085 337.65 362.585 342.99 361.865C343.85 361.745 344.63 361.925 344.75 363.045C344.87 364.165 344.26 364.705 343.18 365.105C338.7 366.785 334.12 364.105 333.76 359.305C333.475 355.662 333.455 352.002 333.7 348.355C333.91 345.415 333.4 343.285 330.12 342.885Z" fill="#6B6B6C"/>
<path d="M458.09 351.835C456.48 349.265 460.73 344.835 455.37 343.185C454.82 343.005 454.78 341.795 455.45 341.535C457.89 340.535 458.67 338.535 459.45 336.285C459.613 336.021 459.835 335.799 460.099 335.636C460.363 335.473 460.661 335.373 460.97 335.345C461.84 335.345 461.97 336.255 461.82 336.845C461.21 340.525 463.34 340.845 466.17 340.655C467.17 340.585 468.76 340.065 468.78 341.945C468.8 343.825 467.31 343.615 466.25 343.425C462.1 342.685 461.54 344.895 461.83 348.255C461.97 350.743 461.97 353.237 461.83 355.725C461.71 359.515 462.41 362.505 467.25 361.895C468.19 361.775 468.86 361.975 468.95 363.075C469.04 364.175 468.52 364.735 467.36 365.125C466.468 365.451 465.517 365.587 464.569 365.524C463.621 365.46 462.697 365.2 461.856 364.758C461.015 364.316 460.276 363.703 459.686 362.959C459.096 362.215 458.668 361.355 458.43 360.435C458.235 359.802 458.118 359.147 458.08 358.485C458.06 356.285 458.09 354.165 458.09 351.835Z" fill="#656566"/>
<path d="M476.95 353.005C476.95 349.845 476.95 346.685 476.95 343.525C476.95 342.195 476.82 340.795 478.82 340.705C480.82 340.615 480.82 341.935 480.82 343.325C480.82 349.645 480.82 355.978 480.82 362.325C480.82 363.755 480.82 365.025 478.76 364.895C476.7 364.765 476.97 363.325 476.96 362.035C476.93 358.995 476.95 356.005 476.95 353.005Z" fill="#656566"/>
<path d="M480.92 333.805C480.92 335.205 480.39 336.035 478.92 335.985C477.45 335.935 476.92 335.125 476.92 333.725C476.877 333.435 476.901 333.139 476.991 332.859C477.08 332.58 477.233 332.325 477.437 332.114C477.641 331.903 477.891 331.742 478.167 331.643C478.444 331.545 478.739 331.511 479.03 331.545C480.48 331.505 480.95 332.465 480.92 333.805Z" fill="#626364"/>
<path d="M436.12 305.475C409.64 267.349 383.167 229.219 356.7 191.085C354.19 187.455 350.76 184.335 349.76 179.765C351.061 179.06 352.11 177.966 352.76 176.635C354.395 175.725 355.748 174.383 356.67 172.755L356.78 172.635C356.77 172.387 356.812 172.14 356.901 171.908C356.991 171.676 357.127 171.465 357.301 171.288C357.476 171.111 357.684 170.972 357.915 170.878C358.145 170.785 358.392 170.74 358.64 170.745C359.52 169.995 360.46 169.315 361.27 168.495C380.977 148.635 400.673 128.759 420.36 108.865C423.77 105.405 427.57 102.305 430.71 97.8653C409.23 97.8653 388.42 97.8653 367.61 97.8653C366.868 97.8215 366.126 97.9402 365.435 98.2131C364.744 98.486 364.121 98.9066 363.61 99.4454C349.09 114.005 334.497 128.569 319.83 143.135L285.03 176.945C284.22 168.645 285.47 161.155 284.25 153.765H283.98L283.75 153.635C273.45 144.805 264.46 134.635 254.75 125.205C247.75 118.435 240.81 111.555 233.84 104.695C233.671 105.328 233.557 105.973 233.5 106.625C233.5 140.552 233.533 174.469 233.6 208.375C233.6 219.835 233.75 231.315 233.83 242.775C233.757 264.255 233.67 285.742 233.57 307.235C233.57 309.685 234.57 310.335 236.86 310.325C251.693 310.245 266.52 310.219 281.34 310.245C283.79 310.245 284.84 309.515 284.82 306.815C284.67 285.815 284.66 264.815 284.6 243.815C292.98 235.465 301.54 227.315 309.66 218.725C312.98 215.215 314.3 215.905 316.72 219.575C335.84 248.575 355.2 277.455 374.34 306.465C375.053 307.739 376.12 308.778 377.413 309.457C378.705 310.135 380.167 310.423 381.62 310.285C398.12 310.135 414.62 310.225 431.12 310.205C433.56 310.205 436.06 310.755 438.51 309.765C438.27 307.955 437.04 306.785 436.12 305.475ZM286.24 238.285C286.24 238.155 286.17 238.035 286.13 237.915C286.179 238.032 286.219 238.153 286.25 238.275L286.24 238.285Z" fill="#9D533D"/>
<path d="M358.65 170.745C358.506 171.182 358.263 171.579 357.941 171.907C357.618 172.234 357.225 172.484 356.79 172.635C356.781 172.387 356.822 172.139 356.912 171.908C357.001 171.676 357.138 171.465 357.312 171.288C357.486 171.111 357.695 170.971 357.925 170.878C358.155 170.785 358.402 170.739 358.65 170.745Z" fill="#9A5039"/>
<path d="M127.19 169.675C127 169.075 126.81 168.455 126.61 167.845C127.66 168.195 127.96 168.765 127.19 169.675Z" fill="#9F5641"/>
<path d="M285.09 158.965H284.83L284.59 158.825C274.29 149.985 265.3 139.825 255.59 130.405C248.59 123.625 241.65 116.735 234.68 109.895C205.86 80.9687 177.044 52.0387 148.23 23.1054C141.64 16.4754 134.57 10.3053 128.65 3.02533C127.59 2.81533 126.65 2.30534 126.65 1.15534C126.65 -0.534663 128.02 0.155341 128.85 0.0653411C129.679 0.0052188 130.511 0.0052188 131.34 0.0653411H279.34C285.69 0.0653411 285.69 0.0653481 285.69 6.63535C285.69 55.7953 285.69 104.955 285.69 154.115C285.66 155.715 285.99 157.425 285.09 158.965Z" fill="url(#paint0_linear_29_95)"/>
<defs>
<linearGradient id="paint0_linear_29_95" x1="206.19" y1="79.4453" x2="286.59" y2="12.3653" gradientUnits="userSpaceOnUse">
<stop stop-color="#F7A014"/>
<stop offset="1" stop-color="#EF8D26"/>
</linearGradient>
</defs>
</svg>
