<svg id="Layer_1" data-name="Layer 1" xmlns="http://www.w3.org/2000/svg"
    xmlns:xlink="http://www.w3.org/1999/xlink" viewBox="0 0 1080 1080">
    <defs>
        <style>
            .cls-1{fill:#9d533d;}.cls-2{fill:#f79c1f;}.cls-3{fill:#626364;}.cls-4{fill:#606061;}.cls-5{fill:#656566;}.cls-6{fill:#ef8d26;}.cls-7{fill:#6b6b6c;}.cls-8{fill:#9a5039;}.cls-9{fill:#9f5641;}.cls-10{fill:url(#linear-gradient);}</style>
        <linearGradient id="linear-gradient" x1="475.36" y1="417.16" x2="555.76" y2="350.08"
            gradientUnits="userSpaceOnUse">
            <stop offset="0" stop-color="#f7a014" />
            <stop offset="1" stop-color="#ef8d26" />
        </linearGradient>
    </defs>
    <title>nk logo</title>
    <path class="cls-1"
        d="M452.13,464.49c0-1.65-.13-3.32-.2-5,.07-6.65,0-13.3.28-19.94.16-3.49-1.29-4.08-4.36-4-14.3.12-28.61.17-42.91,0-3.5,0-4.14,1.23-4,4.31.21,5.4.06,10.79.06,17-4.42-4.16-7.92-7.91-11.89-11.08-17.48-13.95-37.83-16.78-59.3-14.61-10.07,1-20,2.82-28.85,8.23-7.28,3-13,8-17.68,14.13-11,14.28-13.88,31-13.94,48.41-.16,47.13,0,94.25-.17,141.38,0,4.24,1.48,4.88,5.15,4.83,13.82-.16,27.64-.25,41.46.05,4.26.11,4.87-1.51,4.86-5.17q-.17-44.46,0-88.91c0-13.66.08-27.3.36-40.95.27-12.58,5-22.87,16.19-29.52a52.63,52.63,0,0,1,27-2.69c15.08,2.34,24.83,11.72,31.69,24.69,1.05.35,1.35.92.58,1.83l2.58,7.22c.48,3.67.81,7.37,2,10.88,0,.67,0,1.35.08,2q0,58.49-.13,116.94c0,3.09,1.26,3.48,3.85,3.47,13.83-.1,27.66-.28,41.48.09,4.93.13,6-1.33,6-6.08C452.07,582.78,452.14,523.64,452.13,464.49Zm-40,57.55h0Z" />
    <path class="cls-2"
        d="M511,674c.95,5.26.38,10.58.42,15.86.13,19.63.05,39.26.25,58.89,0,2.19-.68,2.85-2.39,2.57-2.15-.34-5.21,1.7-6.18-2.08a8.22,8.22,0,0,1-.07-2q0-34.94,0-69.87c0-1.21-.65-2.7.86-3.61,0,8.45.15,16.91,0,25.35-.07,3.66,2.46,4.07,4.84,4.23,2.89.2,2.19-2.34,2.2-4C511.05,690.87,511,682.42,511,674Z" />
    <path class="cls-3"
        d="M652.78,690.3c0-3.16,0-6.32,0-9.49,0-1.44,1-3.48,1.94-2.19,2.42,3.17,3.85.42,5.64-.22,2.47-.88,5.2-1.25,7.24.22,2.78,2,4.65,1.82,7.69.16,6.09-3.33,11.85.23,12.27,7.18.28,4.64.08,9.32.11,14,0,1.43-.14,2.66-2.06,2.64-2.16,0-1.73-1.58-1.74-2.82,0-4.16,0-8.32,0-12.48,0-3.4-1.06-6-5-6.06s-6.39,1.92-6.7,5.82,0,7.65-.21,11.47c-.07,1.49,1.25,4.16-2,4-3-.17-1.72-2.73-1.8-4.27-.2-3.82-.16-7.65-.14-11.48,0-3.35-1.29-5.51-4.89-5.5-3.35,0-5.67,1.36-6.32,5-.79,4.47-.4,9-.55,13.44,0,1.24.42,2.83-1.73,2.86s-1.77-1.52-1.79-2.78C652.76,696.63,652.78,693.46,652.78,690.3Z" />
    <path class="cls-3"
        d="M716.16,692.85c0,2,.09,4,0,6-.08,1.23.74,2.95-.8,3.59s-1.92-.73-2.55-2-1.48.28-2.08.73a10.29,10.29,0,0,1-8.49,1.73c-3.17-.58-5-2.32-5.39-5.58s.27-6,3.35-7.62c2.69-1.43,5.67-1.71,8.67-2,1.4-.12,3.81.89,3.68-1.88-.1-2-.84-3.87-3.33-4.35a13.34,13.34,0,0,0-6.37.56c-1,.29-2.18,1.32-2.89-.43-.79-1.93.83-2.23,2-2.74,8.31-3.69,14.21,0,14.27,9C716.17,689.52,716.16,691.19,716.16,692.85Zm-7-2.35c-5.53,0-8.45,1.74-8.53,5s2,4.22,4.88,4.18c4.13-.06,6.72-2.69,7.1-6.81C712.89,689.61,710.54,690.74,709.13,690.5Z" />
    <path class="cls-4"
        d="M791.67,690.45c0-3.16.05-6.32,0-9.49,0-1.86,1.4-3.61,2.37-2.31,2.12,2.84,3.36.69,5,0,7.33-3,13,.67,13.14,8.63.06,4.32,0,8.65,0,13,0,1.25,0,2.33-1.76,2.32s-2-.9-2-2.23c0-4.33,0-8.66,0-13,0-3.45-1.19-5.92-5-6.12-3.63-.2-6.56.84-7.54,4.91-1.07,4.45-.42,9-.65,13.43-.07,1.18.59,2.85-1.6,3-2.51.13-1.94-1.74-2-3.11C791.62,696.45,791.67,693.45,791.67,690.45Z" />
    <path class="cls-5"
        d="M560.86,693.36c0,1.83,0,3.66,0,5.49,0,2.9,0,5.64-3.61,2-1-1.07-1.77,0-2.48.53a9.93,9.93,0,0,1-7.59,1.6c-3.62-.48-5.73-2.54-6.11-6.15a6.77,6.77,0,0,1,4.4-7.56,24.05,24.05,0,0,1,7.78-1.56c1.38-.11,3.73.94,3.69-1.9,0-2.17-.91-3.86-3.32-4.33a12.49,12.49,0,0,0-6.84.8c-1.06.39-2,.3-2.51-.82-.74-1.64.61-1.9,1.64-2.41,8.28-4,14.78-.22,14.94,8.83C560.88,689.69,560.85,691.52,560.86,693.36Zm-6.93-2.86c-5.86-.07-8.91,1.83-8.88,5.31,0,3.12,2.08,3.85,4.64,3.91a6.72,6.72,0,0,0,7.3-6.5C557.24,690.38,555.66,690.3,553.93,690.5Z" />
    <path class="cls-3"
        d="M643.1,690.65c-.05,7.69-4.27,12.45-11.1,12.52-7,.07-11.21-4.77-11.18-12.9,0-7.87,4.07-12.47,11-12.53S643.15,682.75,643.1,690.65Zm-18.42-.4c0,6.41,2.44,9.6,7.39,9.5,4.72-.08,7.16-3.27,7.15-9.36s-2.49-9.17-7.28-9.22S624.72,684.06,624.68,690.25Z" />
    <path class="cls-5"
        d="M633.63,732.35c0,3.16,0,6.32,0,9.48,0,1.8-1.49,3.64-2.44,2.15-2-3.16-3.19-.7-4.81-.19-6.31,2-13.58,1-13.43-8.34.07-4.33,0-8.65,0-13,0-1.34-.11-2.75,1.92-2.73s2,1.29,2,2.7c0,4.16.1,8.33,0,12.48-.11,3.46,1,6,4.69,6.43,3.92.44,7.14-1.13,7.73-5.29s.27-8.28.53-12.42c.09-1.4-1.11-3.79,1.66-3.86,3.05-.08,2,2.49,2.08,4.08C633.75,726.68,633.64,729.52,633.63,732.35Z" />
    <path class="cls-3"
        d="M759.61,690.33c0-7.81,4.11-12.51,11-12.6S782,682.58,782,690.56s-4.39,12.77-11.53,12.6C763.74,703,759.6,698.12,759.61,690.33Zm18.42.43q.06-9.68-7.33-9.59c-4.8.05-7.36,3.26-7.38,9.23s2.57,9.24,7.29,9.34S778,696.79,778,690.76Z" />
    <path class="cls-4"
        d="M688,744.52c-6.84-.06-11-4.78-11-12.56,0-8,4.18-12.56,11.52-12.48,6.76.07,11.26,5.13,11.19,12.59C699.72,739.92,695.31,744.59,688,744.52Zm.13-22c-4.85.12-7.33,3.74-7.14,10.38.16,5.43,3,8.67,7.47,8.57s7.64-4.22,7.42-9.89S692.64,722.41,688.17,722.53Z" />
    <path class="cls-3"
        d="M577.94,744.53c-7.19.06-11.61-4.69-11.63-12.52s4.11-12.45,11.07-12.55S589,724.23,589,732,584.78,744.47,577.94,744.53Zm7-12.62c0-5.91-2.71-9.35-7.35-9.38s-7.41,3.56-7.51,9.32c-.09,5.93,3,9.76,7.71,9.62S585,737.9,585,731.91Z" />
    <path class="cls-5"
        d="M709.13,731.88c0-2.34,0-4.67,0-7,0-4.26,0-4.26,4-3,1.2.4,1.62-.79,2.42-1.2,7.45-3.89,14-.32,14.28,8,.16,4.32,0,8.66,0,13,0,1.44-.15,2.69-2.08,2.67s-1.82-1.52-1.83-2.81c0-4-.1-8,0-12s-1.08-6.6-5.3-7-7.28,2.34-7.54,6.84c-.23,4,0,8-.11,12,0,1.23.42,2.85-1.68,3s-2.25-1.41-2.24-3C709.13,738.2,709.12,735,709.13,731.88Z" />
    <path class="cls-3"
        d="M591.91,690.46c0,2.33,0,4.65,0,7,0,4.15,0,4.09-4.16,3.35-.65-.12-1.44.56-2.16.88-8.94,4-14.54.34-14.55-9.5,0-3.49,0-7,0-10.46,0-1.34-.64-3.2,1.8-3.29,2.8-.1,2.08,2,2.1,3.5.06,4,0,8,0,12,0,3,1,5.33,4.27,5.68s6.32.21,7.84-3.57c1.76-4.36.43-8.87,1-13.28.18-1.5-1.34-4.08,1.75-4.23s2,2.45,2.07,4C592,685.14,591.91,687.81,591.91,690.46Z" />
    <path class="cls-3"
        d="M548.1,744.51c-1.49-.13-3.51.26-5.38-.8a2.12,2.12,0,0,1-1.27-2.42c.33-1.54,1.59-.9,2.42-.72,2.27.48,4.52,1.29,6.87.76,1.74-.39,3.79-.69,4.17-2.92s-1.24-3.23-3-4c-2.12-.93-4.25-1.84-6.36-2.79-2.82-1.28-4.7-3.31-4.19-6.59.54-3.46,3.09-5,6.3-5.4,2.62-.3,5.32-.52,7.89.5,1,.39,2.56.37,2,2.13-.42,1.41-1.57,1.54-2.82,1.26-2.09-.47-4.13-1.47-6.33-.8-1.39.43-3.06.67-3.33,2.53s.82,2.72,2.35,3.35c2,.82,3.91,1.74,5.88,2.58,3.29,1.41,6,3.5,5.3,7.43-.78,4.17-3.92,5.92-8.07,5.9Z" />
    <path class="cls-4"
        d="M746.43,744.46a19.87,19.87,0,0,1-3,0c-1.89-.27-4.79-.15-4.24-2.85.52-2.51,2.91-.56,4.48-.47a26.67,26.67,0,0,0,4,.29c2-.2,4.23-.4,4.81-2.76.68-2.77-1.6-3.7-3.56-4.61s-4.36-1.67-6.39-2.77c-2.3-1.26-3.9-3.16-3.54-6a6,6,0,0,1,4.72-5.18,15.89,15.89,0,0,1,9.81.22c.85.3,2.09.19,1.79,1.78s-1.11,1.82-2.49,1.54a28.2,28.2,0,0,0-5.84-.94c-1.75,0-3.82.38-4.16,2.71-.31,2,1.29,2.92,2.8,3.67a34.47,34.47,0,0,0,3.68,1.48c4.13,1.52,8,3.47,6.69,8.83C754.78,744.32,750.58,744.55,746.43,744.46Z" />
    <path class="cls-6"
        d="M511,674c0,8.45,0,16.9-.06,25.35,0,1.66.69,4.2-2.2,4-2.38-.16-4.91-.57-4.84-4.23.17-8.44,0-16.9,0-25.35C506.33,673.34,508.71,673,511,674Z" />
    <path class="cls-7"
        d="M599.29,680.6c.53-2.08,2.72-1.8,3.38-3.13,1.59-3.25,3-9,4.58,0,.27,1.54,2.66.55,4.06.78,1.05.18,2.58-.33,2.54,1.49,0,1.36-1.29,1.54-2.21,1.37-5.18-.92-5.16,2.33-4.95,5.91.12,2,0,4,0,6-.07,3.78.13,7.28,5.47,6.56.86-.12,1.64.06,1.76,1.18s-.49,1.66-1.57,2.06c-4.48,1.68-9.06-1-9.42-5.8a75.51,75.51,0,0,1-.06-10.95C603.08,683.13,602.57,681,599.29,680.6Z" />
    <path class="cls-4"
        d="M641.19,722.29c.93-2.12,2.55-2.1,3.44-3,1.39-1.47,2.29-11,4.37-.18.23,1.22,2.73.5,4.18.63,1.19.1,2.56.06,2.39,1.73-.14,1.4-1.52,1.19-2.37,1-4.76-.82-5.09,1.93-4.79,5.53.2,2.48,0,5,.06,7.48,0,3.55,1,6.33,5.4,5.91,1.11-.11,2,0,1.91,1.46-.07,1-.68,1.3-1.58,1.57-4.79,1.46-8.85-1.08-9.23-6.12-.28-3.64-.1-7.31-.18-11C644.74,724.86,646,721.59,641.19,722.29Z" />
    <path class="cls-5"
        d="M727.26,689.55c-1.61-2.57,2.64-7-2.72-8.65-.55-.18-.59-1.39.08-1.65,2.44-1,3.22-3,4-5.25a2,2,0,0,1,1.52-.94c.87,0,1,.91.85,1.5-.61,3.68,1.52,4,4.35,3.81,1-.07,2.59-.59,2.61,1.29s-1.47,1.67-2.53,1.48c-4.15-.74-4.71,1.47-4.42,4.83a66.46,66.46,0,0,1,0,7.47c-.12,3.79.58,6.78,5.42,6.17.94-.12,1.61.08,1.7,1.18s-.43,1.66-1.59,2.05a6.81,6.81,0,0,1-8.93-4.69,8.25,8.25,0,0,1-.35-1.95C727.23,694,727.26,691.88,727.26,689.55Z" />
    <path class="cls-4"
        d="M602.12,727c0,4.8,0,9.61,0,14.42,0,1.21.43,2.93-1.7,2.86-1.71-.06-1.51-1.48-1.51-2.59q0-14.93,0-29.84c0-1.2,0-2.42,1.74-2.32s1.49,1.46,1.49,2.54C602.14,717.05,602.12,722,602.12,727Z" />
    <path class="cls-7"
        d="M664,732v-10c0-1.24.17-2.36,1.83-2.32s1.84,1.15,1.84,2.39q0,10,0,19.93c0,1.24-.28,2.34-1.91,2.32S664,743.21,664,742C664,738.66,664,735.34,664,732Z" />
    <path class="cls-5"
        d="M746.12,690.72c0-3.16,0-6.32,0-9.48,0-1.33-.13-2.73,1.87-2.82s2,1.23,2,2.62q0,9.48,0,19c0,1.43,0,2.7-2.06,2.57s-1.79-1.57-1.8-2.86C746.1,696.71,746.12,693.72,746.12,690.72Z" />
    <path class="cls-7"
        d="M668,713c-.15,1.44-.73,2.52-2.37,2.48s-1.92-1.23-1.91-2.36.33-2.39,1.8-2.48S667.81,711.46,668,713Z" />
    <path class="cls-3"
        d="M750.09,671.52c0,1.4-.53,2.23-2,2.18s-2-.86-2-2.26a1.91,1.91,0,0,1,2.11-2.18C749.65,669.22,750.12,670.18,750.09,671.52Z" />
    <path class="cls-1"
        d="M705.29,643.19Q665.57,586,625.87,528.8c-2.51-3.63-5.94-6.75-6.94-11.32a7.11,7.11,0,0,0,3-3.13,10.19,10.19,0,0,0,3.91-3.88l.11-.12a1.82,1.82,0,0,1,1.86-1.89c.88-.75,1.82-1.43,2.63-2.25q29.56-29.79,59.09-59.63c3.41-3.46,7.21-6.56,10.35-11-21.48,0-42.29,0-63.1,0a5.1,5.1,0,0,0-4,1.58Q611,459,589,480.85l-34.8,33.81c-.81-8.3.44-15.79-.78-23.18h-.27l-.23-.13c-10.3-8.83-19.29-19-29-28.43-7-6.77-13.94-13.65-20.91-20.51a11.35,11.35,0,0,0-.34,1.93q0,50.89.1,101.75c0,11.46.15,22.94.23,34.4q-.11,32.22-.26,64.46c0,2.45,1,3.1,3.29,3.09q22.25-.12,44.48-.08c2.45,0,3.5-.73,3.48-3.43-.15-21-.16-42-.22-63,8.38-8.35,16.94-16.5,25.06-25.09,3.32-3.51,4.64-2.82,7.06.85,19.12,29,38.48,57.88,57.62,86.89a7.53,7.53,0,0,0,7.28,3.82c16.5-.15,33-.06,49.5-.08,2.44,0,4.94.55,7.39-.44C707.44,645.67,706.21,644.5,705.29,643.19ZM555.41,576c0-.13-.07-.25-.11-.37a2.53,2.53,0,0,1,.12.36Z" />
    <path class="cls-8" d="M627.82,508.46a3,3,0,0,1-1.86,1.89A1.82,1.82,0,0,1,627.82,508.46Z" />
    <path class="cls-9"
        d="M396.36,507.39c-.19-.6-.38-1.22-.58-1.83C396.83,505.91,397.13,506.48,396.36,507.39Z" />
    <path class="cls-10"
        d="M554.26,496.68l-.26,0-.24-.14c-10.3-8.84-19.29-19-29-28.42-7-6.78-13.94-13.67-20.91-20.51q-43.23-43.39-86.45-86.79c-6.59-6.63-13.66-12.8-19.58-20.08-1.06-.21-2-.72-2-1.87,0-1.69,1.37-1,2.2-1.09a17.21,17.21,0,0,1,2.49,0l148,0c6.35,0,6.35,0,6.35,6.57q0,73.74,0,147.48C554.83,493.43,555.16,495.14,554.26,496.68Z" />
</svg>