<svg width="683" height="683" viewBox="0 0 683 683" fill="none" xmlns="http://www.w3.org/2000/svg">
<ellipse cx="341" cy="341" rx="296" ry="184" fill="white"/>
<g clip-path="url(#clip0_18_337)">
<path d="M328.4 15.7333C310.8 22 301.333 35.7333 301.333 54.6666C301.333 62.2666 302 65.0666 305.733 72.1333C310.4 81.2 319.333 89.3333 327.2 91.6L331.333 92.8L331.733 119.733L332 146.667L329.067 147.2C327.333 147.6 321.333 148.133 315.733 148.667C306.533 149.333 292.8 151.467 280.4 154.133L276 154.933V133.2C276 108.667 274.8 104.4 266.533 96.1333C259.733 89.3333 252.267 86.5333 238.133 85.7333L225.867 84.9333L223.467 79.2C222.133 75.8666 218.267 70.8 214.4 67.3333C199.6 54.1333 179.067 54.1333 164.267 67.3333C155.067 75.6 151.467 83.4666 151.333 95.3333C151.2 117.2 167.467 133.6 189.067 133.6C204.533 133.6 217.2 125.467 223.733 111.6L226.667 105.333H236.4C248.4 105.333 253.867 108.133 256 115.6C256.933 118.667 257.333 128.667 257.067 140.667L256.667 160.667L242.667 165.6C180.933 187.867 109.6 238.4 51.6 301.067C31.0667 323.067 28.6667 327.6 28.6667 343.333C28.6667 361.067 30.5334 363.867 66 399.467C104 437.733 134 462.133 170.933 485.2C196 500.933 232.267 518.4 251.733 524.133L257.467 525.867L257.067 547.6L256.667 569.333L252.933 572.933C249.6 576.267 248.267 576.667 238.133 577.067L227.067 577.6L223.467 570.133C216.533 555.867 203.467 548.533 186.933 549.6C176.4 550.267 169.333 553.333 162.267 560.4C146.933 575.733 147.867 600.533 164.267 615.333C172.533 622.8 181.6 625.867 192.533 625.067C197.067 624.667 203.2 623.067 206.133 621.6C212.533 618.267 221.867 608.533 224.4 602.267L226.4 597.733L238.933 597.067C249.6 596.533 252.667 595.733 258.667 592.533C262.533 590.4 267.067 586.933 268.8 584.667C275.067 576.4 276 572 276 551.333C276 540.667 276.4 532 276.933 532C277.333 532 284.133 533.2 291.867 534.667C299.6 536.133 311.733 537.867 318.667 538.4L331.333 539.333L331.733 564.267L332 589.067L325.067 592.4C309.867 599.333 302.533 610 301.6 626.8C301.067 635.6 301.467 638 304.267 644.267C308.8 654.267 314.8 660.533 323.733 664.933C333.6 669.733 348 670.133 357.467 665.867C372.533 658.933 381.333 645.067 381.333 628.4C381.333 620.267 380.667 617.733 376.933 610.533C372.267 601.467 363.333 593.333 355.467 591.067L351.333 589.867V564.667V539.333L363.333 538.4C374 537.467 389.467 535.2 402.4 532.533L406.667 531.6V551.6C406.667 570.4 406.8 571.867 410.133 578.4C416.267 590.667 425.867 595.867 444.667 596.933L456.8 597.733L459.2 603.467C464.133 615.333 479.733 625.333 493.333 625.333C506.933 625.333 520.933 616.4 527.6 603.467C530.4 598 531.2 594.8 531.2 587.333C531.2 565.067 515.333 549.067 493.333 549.067C477.467 549.067 464.8 557.333 458.4 571.6L455.867 577.333H446.533C427.867 577.333 425.333 573.467 425.333 545.733V526L436.4 522.133C497.333 500.8 560.133 457.733 621.333 395.067C651.733 364 654 360.4 654 343.333C654 327.467 651.6 323.067 631.067 301.067C585.733 252.4 532.667 210.667 483.467 185.2C466.133 176.267 442 165.867 430.933 162.533L425.2 160.8L425.6 137.067L426 113.333L429.733 109.733C433.067 106.4 434.4 106 444.533 105.6L455.6 105.067L459.2 112.4C470.533 135.6 501.067 141.067 519.467 123.2C535.733 107.333 535.333 82.5333 518.4 67.3333C499.333 50.2666 470.533 56.1333 458.933 79.4666L456.133 84.9333L444.267 85.7333C425.733 86.9333 416.133 92.1333 410.133 104.267C406.8 110.933 406.667 112.133 406.667 133.067V154.933L402.4 154C390.4 151.467 376.933 149.467 367.333 148.667C348.667 147.2 350.667 150.667 350.667 120.133V93.4666L357.733 90.2666C372.8 83.3333 380.133 72.6666 381.067 55.8666C381.6 47.0666 381.2 44.6666 378.4 38.4C376.533 34.4 373.067 29.0666 370.8 26.2666C361.2 15.4666 342.4 10.6666 328.4 15.7333ZM352 36.2666C359.333 41.3333 362 46 362 54C362 65.7333 353.067 74.6666 341.333 74.6666C329.6 74.6666 320.667 65.7333 320.667 54C320.667 42.2666 329.6 33.3333 341.333 33.3333C345.6 33.3333 348.933 34.2666 352 36.2666ZM199.6 80C212.667 87.8666 209.867 108.533 195.067 113.467C179.333 118.667 165.2 101.6 173.067 86.9333C178 77.7333 190.533 74.4 199.6 80ZM503.333 80C517.467 88.6666 513.067 111.067 496.667 114.133C481.867 116.8 469.6 100.267 476.533 86.8C481.2 77.8666 494.4 74.4 503.333 80ZM384 171.733C434.533 184.8 475.2 216.933 498.4 262.267C512.533 290 517.733 311.467 517.733 342.667C517.867 372 513.333 392.533 501.2 418.533C489.467 443.733 467.333 470.133 444.267 486.667C424.533 500.8 396.933 512.667 372.667 517.467C360.667 519.867 320.933 519.867 310 517.6C271.067 509.2 239.2 491.6 213.067 464.133C189.467 439.333 175.2 411.867 167.867 376.933C164.133 359.067 163.867 330.267 167.333 312C178.667 252 218.667 202.667 274.667 179.6C298.667 169.6 316.4 166.667 346 167.2C365.867 167.733 370.533 168.267 384 171.733ZM191.867 216.267C170.133 242.133 155.867 271.333 148.533 305.333C146.533 314.267 146 322.267 146 343.333C146 364.4 146.533 372.4 148.533 381.333C156 415.467 170.267 444.667 192.133 470.533L200.4 480.4L193.867 476.667C179.333 468.267 148.933 447.333 132.667 434.4C95.6 404.667 50.8 359.467 47.8667 348.933C44.8 337.333 47.3334 333.067 74.1334 305.467C109.6 268.8 145.467 239.6 183.2 216.4C192 211.067 199.333 206.667 199.6 206.667C199.867 206.667 196.4 211.067 191.867 216.267ZM510.533 223.6C547.6 247.733 585.333 280 617.6 315.2C644.133 344.133 643.867 345.6 600.667 388.8C564.533 424.933 526.4 454.933 488.8 476.667L482.133 480.4L489.733 471.467C512 445.333 526.667 414.933 534.267 380C537.733 364 537.733 322.667 534.267 306.667C526.667 271.467 512.133 241.6 489.867 215.333L482 206L488.667 209.867C492.4 212 502.133 218.133 510.533 223.6ZM197.067 569.867C203.6 573.333 207.067 578.133 207.733 585.067C208.8 596.933 201.2 605.333 189.467 605.333C169.733 605.333 163.6 579.2 181.333 570.4C186.933 567.467 192.267 567.333 197.067 569.867ZM501.333 570.4C519.067 579.2 512.933 605.333 493.2 605.333C481.467 605.333 473.867 596.933 474.933 585.067C476.267 571.733 489.467 564.4 501.333 570.4ZM352 610.933C359.333 616 362 620.667 362 628.667C362 636.667 359.467 641.333 351.867 646.4C348.133 649.067 346 649.467 339.6 649.067C333.067 648.533 331.333 647.867 327.333 644C316.533 633.6 318.267 618.4 331.2 610.533C337.067 606.933 346.4 607.2 352 610.933Z" fill="black"/>
<path d="M324.667 209.2C317.467 212.533 313.467 217.2 310.8 225.333L308.533 232.133L297.333 236.667L286 241.2L279.467 238C271.867 234.267 264.667 233.733 257.867 236.667C252 239.067 238.133 252.133 235.467 258C232.267 264.8 232.8 275.6 236.667 282.4L240 288.133L236.8 294.4C235.067 297.867 232.933 302.933 232.133 305.6C230.667 310 229.733 310.8 223.6 312.533C216.133 314.667 209.2 320.667 206.8 327.067C206 329.2 205.333 336.533 205.333 343.6C205.333 362.133 209.333 368.8 222.8 373.467C229.867 375.733 229.867 375.733 234.8 387.333L239.733 398.8L236.533 404.4C232.533 411.467 232.267 422 235.867 429.2C239.467 436.267 253.6 448.933 259.733 450.533C267.067 452.667 270.267 452.4 278.533 448.667L286 445.333L297.2 449.867C308.267 454.4 308.4 454.4 310.667 461.2C315.067 474.4 323.733 479.867 340 480C345.467 480 352.267 479.333 355.067 478.533C362.667 476.533 370 468.533 372 460.133C372.933 456 374.267 453.333 375.467 453.333C376.533 453.333 381.6 451.467 386.8 449.067L396.4 444.8L401.2 447.6C413.2 454.533 423.733 452.8 435.867 441.867C449.333 429.6 452.667 417.467 446.133 405.067L442.933 398.933L447.333 388C449.733 382 452.267 376.667 452.933 376.133C453.467 375.6 456.533 374.4 459.467 373.6C472.4 369.867 477.2 361.6 477.333 343.067C477.333 336.4 476.667 329.2 475.867 327.067C473.467 320.667 466.533 314.667 459.067 312.533C452.933 310.8 452 310 450.533 305.6C449.733 302.933 447.6 297.867 445.867 294.4L442.667 288.133L446 282.4C449.6 276.133 450.4 265.867 448 259.333C446 254 432 240 426 237.2C418.533 233.733 410.933 234 403.467 238L397.067 241.333L385.733 236.8L374.4 232.267L372 225.467C367.467 211.867 359.067 206.667 341.333 206.667C333.067 206.667 328.533 207.467 324.667 209.2ZM351.733 228.4C352.533 229.333 353.867 233.067 354.667 236.533C356.8 246.4 357.867 247.6 367.6 250.8C372.667 252.4 380.667 255.733 385.6 258.133C390.533 260.667 396 262.667 397.6 262.667C399.333 262.667 403.333 260.8 406.667 258.667C410 256.533 413.867 254.667 415.333 254.667C418 254.667 430.667 266.133 430.667 268.667C430.667 269.467 428.533 273.333 426 277.333C423.467 281.333 421.333 285.733 421.333 287.2C421.333 288.533 423.067 292.8 425.2 296.533C427.333 300.267 430.667 308.133 432.533 313.867C434.533 319.733 436.667 325.2 437.467 326.133C438.267 327.067 442.533 328.667 446.933 329.467C451.333 330.4 455.733 331.867 456.8 332.933C458.8 335.067 459.467 350.133 457.467 353.067C456.933 354 452.667 355.733 448 356.8C443.333 357.867 438.8 359.333 437.867 360.133C436.933 360.933 434.933 365.6 433.467 370.667C431.867 375.733 428.533 383.867 425.867 388.8C420.533 398.933 420.533 401.2 426.8 410.133C428.933 413.2 430.667 416.533 430.667 417.467C430.667 420.267 418.267 432 415.333 432C413.867 432 410 430.133 406.667 428C403.333 425.867 399.333 424 397.6 424C396 424 390.533 426 385.6 428.533C380.533 431.067 372.933 434.133 368.533 435.333C359.067 438 356.667 440.533 354.667 450C353.867 453.867 352.4 457.867 351.333 458.667C350.267 459.467 345.6 460 339.733 459.733L330 459.333L327.733 450C326.533 444.933 324.533 440 323.2 439.067C322 438.133 317.6 436.4 313.6 435.2C309.467 434.133 302.133 431.067 297.067 428.533C292.133 426 286.667 424 285.067 424C283.333 424 279.333 425.867 276 428C272.667 430.133 268.8 432 267.333 432C264.4 432 252 420.4 252 417.6C252 416.667 253.733 413.2 255.867 410.133C262.133 401.2 262.133 398.933 256.8 388.8C254.133 383.867 250.8 375.6 249.2 370.533C246.133 360.267 243.733 358.133 233.333 356.533C230.267 356 226.933 354.8 225.867 353.733C223.867 351.6 223.2 336.667 225.2 333.6C225.733 332.667 230 330.933 234.667 329.867C239.333 328.8 243.867 327.333 244.8 326.533C245.733 325.733 247.733 320.933 249.333 315.6C250.933 310.267 254.267 302 256.8 297.2C259.333 292.4 261.333 287.867 261.333 287.2C261.333 286.4 259.2 282.4 256.667 278.133C254.133 273.867 252 269.733 252 268.933C252 266.267 264.533 254.667 267.333 254.667C268.8 254.667 272.667 256.533 276 258.667C279.333 260.8 283.333 262.667 285.067 262.667C286.667 262.667 292.133 260.667 297.067 258.133C302.133 255.6 309.6 252.533 313.867 251.333C323.333 248.533 326.133 246 327.333 238.533C329.333 226.8 329.467 226.667 340.533 226.667C346.933 226.667 350.8 227.2 351.733 228.4Z" fill="black"/>
<path d="M324.4 278C283.067 289.2 262.4 334.533 281.333 372.8C290.267 391.067 308.267 405.067 327.733 409.2C372.533 418.533 413.6 380.267 407.867 334.533C402.933 294.933 362.8 267.733 324.4 278ZM357.733 298.133C369.333 302.267 380 312.4 385.6 324.933C388 330 388.533 333.867 388.667 343.333C388.667 353.733 388.133 356.267 385.067 362.667C379.867 373.333 373.333 380.267 363.733 385.467C355.733 389.867 354.8 390 341.333 390C327.867 390 326.933 389.867 318.933 385.467C309.067 380.133 302.4 373.067 297.467 362.667C294.533 356.4 294 353.6 294 343.333C294 332.4 294.4 330.4 298.4 322.4C309.2 300.267 334.4 290 357.733 298.133Z" fill="black"/>
<circle cx="179" cy="95" r="50" fill="#F6861B"/>
<circle cx="341" cy="50" r="50" fill="#F6861B"/>
<circle cx="341" cy="50" r="38" fill="white"/>
<circle cx="494" cy="95" r="50" fill="#F6861B"/>
<circle cx="494" cy="95" r="38" fill="white"/>
<circle cx="494" cy="591" r="50" fill="#F6861B"/>
<circle cx="494" cy="591" r="44" fill="white"/>
<circle cx="494" cy="591" r="50" fill="#F6861B"/>
<circle cx="494" cy="591" r="44" fill="white"/>
<circle cx="494" cy="591" r="50" fill="#F6861B"/>
<circle cx="494" cy="591" r="44" fill="white"/>
<circle cx="494" cy="591" r="50" fill="#F6861B"/>
<circle cx="494" cy="591" r="38" fill="white"/>
<circle cx="341" cy="619" r="50" fill="#F6861B"/>
<circle cx="341" cy="619" r="44" fill="white"/>
<circle cx="341" cy="619" r="50" fill="#F6861B"/>
<circle cx="341" cy="619" r="44" fill="white"/>
<circle cx="341" cy="619" r="50" fill="#F6861B"/>
<circle cx="341" cy="619" r="44" fill="white"/>
<circle cx="341" cy="619" r="50" fill="#F6861B"/>
<path d="M379 619C379 639.987 361.987 657 341 657C320.013 657 303 639.987 303 619C303 598.013 320.013 581 341 581C361.987 581 379 598.013 379 619Z" fill="white"/>
<circle cx="185" cy="591" r="50" fill="#F6861B"/>
<path d="M223 591C223 611.987 205.987 629 185 629C164.013 629 147 611.987 147 591C147 570.013 164.013 553 185 553C205.987 553 223 570.013 223 591Z" fill="white"/>
<circle cx="341" cy="343" r="184" fill="#F6861B"/>
<circle cx="340.5" cy="342.5" r="177.5" fill="white"/>
<circle cx="341" cy="343" r="184" fill="#F6861B"/>
<circle cx="340" cy="343" r="184" fill="white"/>
<path d="M324.333 208.533C317.133 211.867 313.133 216.533 310.467 224.667L308.2 231.467L297 236L285.667 240.533L279.133 237.333C271.533 233.6 264.333 233.067 257.533 236C251.667 238.4 237.8 251.467 235.133 257.333C231.933 264.133 232.467 274.933 236.333 281.733L239.667 287.467L236.467 293.733C234.733 297.2 232.6 302.267 231.8 304.933C230.333 309.333 229.4 310.133 223.267 311.867C215.8 314 208.867 320 206.467 326.4C205.667 328.533 205 335.867 205 342.933C205 361.467 209 368.133 222.467 372.8C229.533 375.067 229.533 375.067 234.467 386.667L239.4 398.133L236.2 403.733C232.2 410.8 231.933 421.333 235.533 428.533C239.133 435.6 253.267 448.267 259.4 449.867C266.733 452 269.933 451.733 278.2 448L285.667 444.667L296.867 449.2C307.933 453.733 308.067 453.733 310.333 460.533C314.733 473.733 323.4 479.2 339.667 479.333C345.133 479.333 351.933 478.667 354.733 477.867C362.333 475.867 369.667 467.867 371.667 459.467C372.6 455.333 373.933 452.667 375.133 452.667C376.2 452.667 381.267 450.8 386.467 448.4L396.067 444.133L400.867 446.933C412.867 453.867 423.4 452.133 435.533 441.2C449 428.933 452.333 416.8 445.8 404.4L442.6 398.267L447 387.333C449.4 381.333 451.933 376 452.6 375.467C453.133 374.933 456.2 373.733 459.133 372.933C472.067 369.2 476.867 360.933 477 342.4C477 335.733 476.333 328.533 475.533 326.4C473.133 320 466.2 314 458.733 311.867C452.6 310.133 451.667 309.333 450.2 304.933C449.4 302.267 447.267 297.2 445.533 293.733L442.333 287.467L445.667 281.733C449.267 275.467 450.067 265.2 447.667 258.667C445.667 253.333 431.667 239.333 425.667 236.533C418.2 233.067 410.6 233.333 403.133 237.333L396.733 240.667L385.4 236.133L374.067 231.6L371.667 224.8C367.133 211.2 358.733 206 341 206C332.733 206 328.2 206.8 324.333 208.533ZM351.4 227.733C352.2 228.667 353.533 232.4 354.333 235.867C356.467 245.733 357.533 246.933 367.267 250.133C372.333 251.733 380.333 255.067 385.267 257.467C390.2 260 395.667 262 397.267 262C399 262 403 260.133 406.333 258C409.667 255.867 413.533 254 415 254C417.667 254 430.333 265.467 430.333 268C430.333 268.8 428.2 272.667 425.667 276.667C423.133 280.667 421 285.067 421 286.533C421 287.867 422.733 292.133 424.867 295.867C427 299.6 430.333 307.467 432.2 313.2C434.2 319.067 436.333 324.533 437.133 325.467C437.933 326.4 442.2 328 446.6 328.8C451 329.733 455.4 331.2 456.467 332.267C458.467 334.4 459.133 349.467 457.133 352.4C456.6 353.333 452.333 355.067 447.667 356.133C443 357.2 438.467 358.667 437.533 359.467C436.6 360.267 434.6 364.933 433.133 370C431.533 375.067 428.2 383.2 425.533 388.133C420.2 398.267 420.2 400.533 426.467 409.467C428.6 412.533 430.333 415.867 430.333 416.8C430.333 419.6 417.933 431.333 415 431.333C413.533 431.333 409.667 429.467 406.333 427.333C403 425.2 399 423.333 397.267 423.333C395.667 423.333 390.2 425.333 385.267 427.867C380.2 430.4 372.6 433.467 368.2 434.667C358.733 437.333 356.333 439.867 354.333 449.333C353.533 453.2 352.067 457.2 351 458C349.933 458.8 345.267 459.333 339.4 459.067L329.667 458.667L327.4 449.333C326.2 444.267 324.2 439.333 322.867 438.4C321.667 437.467 317.267 435.733 313.267 434.533C309.133 433.467 301.8 430.4 296.733 427.867C291.8 425.333 286.333 423.333 284.733 423.333C283 423.333 279 425.2 275.667 427.333C272.333 429.467 268.467 431.333 267 431.333C264.067 431.333 251.667 419.733 251.667 416.933C251.667 416 253.4 412.533 255.533 409.467C261.8 400.533 261.8 398.267 256.467 388.133C253.8 383.2 250.467 374.933 248.867 369.867C245.8 359.6 243.4 357.467 233 355.867C229.933 355.333 226.6 354.133 225.533 353.067C223.533 350.933 222.867 336 224.867 332.933C225.4 332 229.667 330.267 234.333 329.2C239 328.133 243.533 326.667 244.467 325.867C245.4 325.067 247.4 320.267 249 314.933C250.6 309.6 253.933 301.333 256.467 296.533C259 291.733 261 287.2 261 286.533C261 285.733 258.867 281.733 256.333 277.467C253.8 273.2 251.667 269.067 251.667 268.267C251.667 265.6 264.2 254 267 254C268.467 254 272.333 255.867 275.667 258C279 260.133 283 262 284.733 262C286.333 262 291.8 260 296.733 257.467C301.8 254.933 309.267 251.867 313.533 250.667C323 247.867 325.8 245.333 327 237.867C329 226.133 329.133 226 340.2 226C346.6 226 350.467 226.533 351.4 227.733Z" fill="black"/>
<path d="M324.14 278.179C282.806 289.379 262.14 334.713 281.073 372.979C290.006 391.246 308.006 405.246 327.473 409.379C372.273 418.713 413.34 380.446 407.606 334.713C402.673 295.113 362.54 267.913 324.14 278.179ZM357.473 298.313C369.073 302.446 379.74 312.579 385.34 325.113C387.74 330.179 388.273 334.046 388.406 343.513C388.406 353.913 387.873 356.446 384.806 362.846C379.606 373.513 373.073 380.446 363.473 385.646C355.473 390.046 354.54 390.179 341.073 390.179C327.606 390.179 326.673 390.046 318.673 385.646C308.806 380.313 302.14 373.246 297.206 362.846C294.273 356.579 293.74 353.779 293.74 343.513C293.74 332.579 294.14 330.579 298.14 322.579C308.94 300.446 334.14 290.179 357.473 298.313Z" fill="#F6861B"/>
<circle cx="179" cy="95" r="38" fill="white"/>
</g>
<defs>
<clipPath id="clip0_18_337">
<rect width="682.667" height="682.667" fill="white"/>
</clipPath>
</defs>
</svg>
