<svg width="671" height="671" viewBox="0 0 671 671" fill="none" xmlns="http://www.w3.org/2000/svg">
<g filter="url(#filter0_d_18_418)">
<path d="M5 79.4001V157.933L66.7333 180.2C125 201.4 129.267 203.267 146.6 213.533C157.667 219.933 165 225.133 165 226.467C165 232.067 169.933 241.933 175.133 247.267C179.4 251.533 182.867 253.533 188.733 255.133L196.6 257.4L198.867 265.267C201.933 276.067 209.8 284.067 220.6 287.133L228.333 289.267L230.733 297C233.133 305.533 242.467 316.333 248.467 317.8C251.4 318.6 253 321 250.6 321C247.8 321 220.733 340.333 211.4 349C190.067 368.733 169.667 401.8 161.8 429.267C151.8 464.333 152.2 503.667 163.133 536.733C178.6 583.133 211.667 621.534 255.133 643.4C266.333 649 287.4 656.2 301.667 659.134C317.8 662.467 352.733 662.6 369 659.267C418.467 649.4 461.267 620.6 487.933 579C521.8 526.467 526.2 459.667 499.533 403.8C490.067 383.667 479.533 368.867 464.333 353.533C450.6 339.667 432.2 326.467 415.533 318.333L406.733 313.933L408.467 309.133C409.4 306.467 410.2 303.4 410.333 302.2C410.333 300.733 412.067 299.667 415.267 299C428.733 296.467 439.133 286.2 441.667 272.733C442.467 268.333 443.133 267.8 447.8 267C460.6 264.867 472.467 251.667 473.933 238.067L474.6 230.733L498.2 216.733L521.667 202.733L585.667 183C620.867 172.2 653.4 162.2 658.067 160.733L666.333 158.2V79.6668V1.00018H633H599.667L525 43.6668L450.2 86.3335H441.933C435.667 86.3335 425.267 83.9335 399 76.4669C379.933 71.1335 361.4 66.3335 357.667 65.8002C354.067 65.2668 339.667 61.2668 325.667 56.8668C288.333 45.0002 285.8 44.4669 263.667 44.4669C244.6 44.4669 243.8 44.6001 204.467 53.4001L164.467 62.4669L118.333 31.6668L72.3333 1.00018H38.6H5V79.4001ZM109.133 51.4001L152.6 80.3335L139.4 129C132.067 155.8 125.8 177.933 125.533 178.2C125.267 178.467 102.867 170.733 75.6667 160.867L26.3333 143V82.6002V22.3335H46.0667H65.6667L109.133 51.4001ZM644.733 82.4669L644.333 142.6L584.333 161.133C551.4 171.267 523.533 179.667 522.733 179.667C521.8 179.667 509.133 161.933 494.733 140.2C473.667 108.733 468.867 100.467 470.333 99.5335C471.4 99.0002 502.067 81.4002 538.333 60.4669L604.333 22.6002L624.733 22.4669L645 22.3335L644.733 82.4669ZM285.667 67.5335C292.333 69.0002 301 71.2669 305 72.7335L312.333 75.2668L282.733 90.2002C249.667 106.867 245.267 110.333 241.4 123.533C234.733 146.6 249.267 168.867 272.333 171.267C282.2 172.333 286.733 170.467 313.267 154.733C339.4 139.267 344.333 137.667 353.267 141.933C358.6 144.6 448.6 225 451.267 229.533C453.933 234.067 453.267 238.333 449.133 242.467C446.333 245.267 443.933 246.333 440.6 246.333C435.267 246.333 435.267 246.333 399 215.933L375 195.667L368.067 203.4C364.2 207.533 361.133 211.267 361.133 211.667C361.133 212.067 374.2 223.133 390.067 236.333C408.2 251.4 419.4 261.667 420.2 263.933C422.733 271.267 416.733 278.333 407.667 278.333C403.533 278.333 399.667 275.4 363.667 245.133L343 227.8L336.067 235.4C332.2 239.533 329.133 243.267 329.133 243.667C329.133 244.067 342.2 255.133 358.067 268.333C376.2 283.4 387.4 293.667 388.2 295.933C390.6 302.867 384.733 310.333 376.6 310.333C373.133 310.333 365.933 306.2 360.733 301.267C357.667 298.467 357 296.733 357 291.667C357 276.067 347.533 263 333.267 258.733L325.267 256.333L323.133 248.6C320.067 237.8 312.067 229.933 301.267 226.867L293.4 224.6L291.133 216.733C288.067 205.8 280.2 197.933 269.267 194.867L261.4 192.6L259.133 184.733C253.667 165.267 231.667 155.667 212.867 164.733C209.133 166.467 200.067 174.467 189.133 185.667L171.267 203.533L158.867 196.067C151.133 191.533 146.333 187.8 146.333 186.467C146.333 183.533 173.667 83.8002 174.733 82.7335C175.267 82.3335 184.733 79.9335 195.933 77.4001C255.933 63.8001 263.933 63.0002 285.667 67.5335ZM392.867 97.0002C421.933 105.267 432.333 107.667 438.867 107.667H447.267L474.067 148.067C488.867 170.2 501 188.733 501 189.267C501 189.8 492.867 195 483 201L465 211.8L417.4 168.867C367.4 123.933 362.867 120.6 349.533 118.867C337.133 117.4 330.333 119.8 303.667 135.8C281.133 149.267 278.6 150.467 273.8 149.933C266.467 148.867 262.067 144.2 261.4 136.067C260.333 125.933 262.467 124.334 298.867 106.067C316.467 97.1335 333.4 89.1335 336.333 88.2002C347 84.8669 353.8 85.8002 392.867 97.0002ZM235.8 186.2C238.467 189 239.667 191.4 239.667 194.467C239.667 198.333 237.4 201.133 221.267 217.267C205.133 233.4 202.333 235.667 198.467 235.667C192.467 235.667 186.333 229.533 186.333 223.533C186.333 219.667 188.6 216.867 204.733 200.733C220.867 184.6 223.667 182.333 227.533 182.333C230.6 182.333 233 183.533 235.8 186.2ZM267.8 218.2C270.467 221 271.667 223.4 271.667 226.467C271.667 230.333 269.4 233.133 253.267 249.267C237.133 265.4 234.333 267.667 230.467 267.667C224.467 267.667 218.333 261.533 218.333 255.533C218.333 251.667 220.6 248.867 236.733 232.733C252.867 216.6 255.667 214.333 259.533 214.333C262.6 214.333 265 215.533 267.8 218.2ZM299.8 250.2C302.467 253 303.667 255.4 303.667 258.467C303.667 262.333 301.4 265.133 285.267 281.267C269.133 297.4 266.333 299.667 262.467 299.667C256.467 299.667 250.333 293.533 250.333 287.533C250.333 283.667 252.6 280.867 268.733 264.733C284.867 248.6 287.667 246.333 291.533 246.333C294.6 246.333 297 247.533 299.8 250.2ZM331.8 282.2C334.467 285 335.667 287.4 335.667 290.467C335.667 294.333 333.4 297.133 317.267 313.267C301.133 329.4 298.333 331.667 294.467 331.667C288.467 331.667 282.333 325.533 282.333 319.533C282.333 315.667 284.6 312.867 300.733 296.733C316.867 280.6 319.667 278.333 323.533 278.333C326.6 278.333 329 279.533 331.8 282.2ZM352.2 322.333C357.267 327.933 357.933 330.733 355.533 336.067C352.067 343.8 341.933 344.333 334.2 337.4L328.867 332.6L336.6 324.733C340.733 320.467 345 317 345.8 317C346.6 317 349.533 319.4 352.2 322.333ZM405.8 337.533C463.4 365.933 497.933 423.667 495.267 487C493.4 528.867 477.8 564.334 448.467 593.8C425.667 616.467 399 631.134 367.667 637.8C353.533 640.867 320.733 641.267 307 638.467C257 628.6 215.133 596.867 192.467 552.067C175 517.267 171 474.6 181.933 437C185.8 423.4 195.933 401.8 203.667 390.333C215.667 372.733 236.333 353.667 255.267 342.867L265.4 337.133L270.6 342.467C273.533 345.4 277.933 348.733 280.6 349.8L285.267 351.8L275.667 356.467C255.267 366.2 232.6 385.667 220.867 403.667C192.6 446.467 189.4 497.933 211.933 542.867C219 557.133 223.667 563.667 235.533 576.067C252.333 593.667 269.8 604.867 292.333 612.6C331.8 626.067 379.267 619.267 414.333 595.267C423.267 589 440.2 572.334 447.533 562.467C486.867 509 482.2 434.867 436.333 386.467C420.733 370.067 405.533 359.8 384.6 351.533C378.867 349.4 375.133 347.133 375.267 346.067C376.733 337 379 331.8 381.533 331.267C388.467 329.933 391.933 330.733 405.8 337.533ZM356.333 365.667C379.533 369.8 401.267 381.267 418.333 398.333C464.2 444.067 464.2 518.067 418.467 563.8C372.733 609.534 298.733 609.534 253 563.667C207 517.8 207 444.2 253 398.333C280.467 370.867 317.933 359 356.333 365.667Z" fill="black" stroke="white"/>
<path d="M147 186.5C157.198 146.191 163.032 123.603 175.5 83.5C199.196 76.6442 212.728 73.8632 237 69.5C250.833 65.8814 258.612 65.5544 272.5 66C287.903 67.9483 296.287 69.9093 311 75.5L278 92C279.45 93.439 256.154 99.2117 247 112C237.846 124.788 237.62 137.153 244 152.5C250.38 167.847 258.588 167.796 268.5 171C276.979 172.653 281.2 172.455 287.5 169.5L324.5 148.5C338.056 141.105 344.109 138.982 350.5 141C391.558 175.109 415.584 192.896 452.5 232.5C453.792 244.621 440.115 246.991 437 245.5C433.885 244.009 399.107 214.937 375 195L361 211.5C361 211.5 415.228 256.219 419.5 263.5C423.772 270.781 412.785 279.965 405 277.5C397.215 275.035 366.689 247.657 342.5 228L329 243.5L370 279L387.5 295.5C388.484 299.057 388.382 301.122 386.5 305C384.631 307.439 382 309 379.5 309.5C377 310 370.902 308.966 366.5 305.5C363.132 302.619 361.182 301.066 358.5 297.5L355.5 280.5C351.42 267.139 344.719 261.728 325.5 255.5L321.5 242.5C313.234 230.614 307.369 226.287 293.5 224.5L291 215C288.226 206.296 285.137 202.918 278 198.5L261 192C258.019 178.142 250.94 171.139 250 170.5C249.06 169.861 239.281 160.397 229 161.5C223.468 161.067 219.611 161.882 211.5 165C194.136 179.015 185.675 187.552 171 203C160.953 197.571 155.536 194.204 147 186.5Z" fill="white" stroke="white"/>
<path d="M523 179.5C514.167 167.833 491.2 135.7 470 100.5L606 25.5H644V142.5L523 179.5Z" stroke="white"/>
<path d="M325 395.534V406.067L318.733 407C305 409 292.6 418.2 286.333 431C283.8 436.467 283.133 439.8 283.133 449C283 459.4 283.4 461 287.533 468.734C292.6 478.067 296.867 482.2 306.867 487.267C313 490.467 315.533 490.867 333.933 491.534C351.533 492.2 354.6 492.734 357.8 495.134C364.867 500.334 367 504.6 367 513C367 521.4 364.867 525.667 357.8 530.867C354.467 533.4 352.2 533.667 335.667 533.667C319.133 533.667 316.867 533.4 313.533 530.867C306.467 525.667 304.467 521.534 303.933 511.667L303.4 502.334H292.6H281.933L282.6 513.534C283.8 531.534 291.267 543.4 306.2 551C309.667 552.734 315.267 554.467 318.733 555L325 555.934V566.467V577H335.667H346.333V566.467V555.934L352.6 555C359.667 553.934 369.267 549.534 375.267 544.467C377.4 542.6 381.267 537.4 383.8 532.734C387.933 525 388.333 523.4 388.333 513C388.333 502.6 387.933 501 383.8 493.267C378.733 483.934 374.467 479.8 364.467 474.734C358.333 471.534 355.8 471.134 337.4 470.467C315.533 469.667 313.4 468.867 307.133 460.467C303.267 455.267 303.267 442.734 307.133 437.534C313.133 429.4 315.933 428.334 332.733 427.934C341.667 427.667 350.333 428.067 353.133 428.867C359.267 430.734 365.933 438.067 367.133 444.334L367.933 449H378.6H389.267L388.333 442.6C387.267 434.734 380.467 421.934 375.267 417.534C369.267 412.467 359.667 408.067 352.6 407L346.333 406.067V395.534V385H335.667H325V395.534Z" fill="black"/>
<path d="M53.8 341.133C34.0667 367.533 18.2 389.4 18.6 389.8C19 390.067 22.7333 393 27.1333 396.2L34.8667 402.067L57 372.6L79 343.133L79.4 454.733L79.6667 566.333H90.3333H101L101.267 454.733L101.667 343.133L123.667 372.6L145.8 402.067L153.533 396.2C157.933 393 161.667 390.067 162.067 389.8C162.733 389 91.5333 293.133 90.3333 293.133C89.9333 293.133 73.5333 314.733 53.8 341.133Z" fill="black"/>
<path d="M544.467 341.133C524.733 367.533 508.867 389.4 509.267 389.8C509.667 390.067 513.4 393 517.8 396.2L525.533 402.067L547.667 372.6L569.667 343.133L570.067 454.733L570.333 566.333H581H591.667L591.933 454.733L592.333 343.133L614.333 372.6L636.467 402.067L644.2 396.2C648.6 393 652.333 390.067 652.733 389.8C653.4 389 582.2 293.133 581 293.133C580.6 293.133 564.2 314.733 544.467 341.133Z" fill="black"/>
<path d="M79.6667 598.333V609H90.3334H101V598.333V587.667H90.3334H79.6667V598.333Z" fill="black"/>
<path d="M570.333 598.333V609H581H591.667V598.333V587.667H581H570.333V598.333Z" fill="black"/>
<path d="M325.067 395.534V406.067L318.8 407C305.067 409 292.667 418.2 286.4 431C283.867 436.467 283.2 439.8 283.2 449C283.067 459.4 283.467 461 287.6 468.734C292.667 478.067 296.933 482.2 306.933 487.267C313.067 490.467 315.6 490.867 334 491.534C351.6 492.2 354.667 492.734 357.867 495.134C364.933 500.334 367.067 504.6 367.067 513C367.067 521.4 364.933 525.667 357.867 530.867C354.533 533.4 352.267 533.667 335.733 533.667C319.2 533.667 316.933 533.4 313.6 530.867C306.533 525.667 304.533 521.534 304 511.667L303.467 502.334H292.667H282L282.667 513.534C283.867 531.534 291.333 543.4 306.267 551C309.733 552.734 315.333 554.467 318.8 555L325.067 555.934V566.467V577H335.733H346.4V566.467V555.934L352.667 555C359.733 553.934 369.333 549.534 375.333 544.467C377.467 542.6 381.333 537.4 383.867 532.734C388 525 388.4 523.4 388.4 513C388.4 502.6 388 501 383.867 493.267C378.8 483.934 374.533 479.8 364.533 474.734C358.4 471.534 355.867 471.134 337.467 470.467C315.6 469.667 313.467 468.867 307.2 460.467C303.333 455.267 303.333 442.734 307.2 437.534C313.2 429.4 316 428.334 332.8 427.934C341.733 427.667 350.4 428.067 353.2 428.867C359.333 430.734 366 438.067 367.2 444.334L368 449H378.667H389.333L388.4 442.6C387.333 434.734 380.533 421.934 375.333 417.534C369.333 412.467 359.733 408.067 352.667 407L346.4 406.067V395.534V385H335.733H325.067V395.534Z" fill="#F6861B"/>
<path d="M26.5 143V22.5L26.1743 22H66L153 80L125.5 178.5L26.5 143Z" fill="white"/>
<path d="M471.5 101L523 178.5L643.5 142V25H605.5L471.5 101Z" fill="white" stroke="white"/>
<path d="M220 186C209.5 195.499 196.244 208.064 188.5 218C180.756 227.936 197.803 239.665 203.5 233.5C209.197 227.335 225.5 213 236 202C246.5 191 230.5 176.5 220 186Z" fill="white" stroke="white"/>
<path d="M220 186C209.5 195.499 196.244 208.064 188.5 218C180.756 227.936 197.803 239.665 203.5 233.5C209.197 227.335 225.5 213 236 202C246.5 191 230.5 176.5 220 186Z" fill="white" stroke="white"/>
<path d="M316.483 282.081C305.983 291.58 292.726 304.145 284.983 314.081C277.239 324.017 294.286 335.746 299.983 329.581C305.68 323.416 321.983 309.081 332.483 298.081C342.983 287.081 326.983 272.581 316.483 282.081Z" fill="white" stroke="white"/>
<path d="M284.483 250.081C273.983 259.58 260.726 272.145 252.983 282.081C245.239 292.017 262.286 303.746 267.983 297.581C273.68 291.416 289.983 277.081 300.483 266.081C310.983 255.081 294.983 240.581 284.483 250.081Z" fill="white" stroke="white"/>
<path d="M252.483 218.081C241.983 227.58 228.726 240.145 220.983 250.081C213.239 260.017 230.286 271.746 235.983 265.581C241.68 259.416 257.983 245.081 268.483 234.081C278.983 223.081 262.983 208.581 252.483 218.081Z" fill="white" stroke="white"/>
<path d="M265.5 125C250.917 126.355 266.392 156.819 280 149C293.609 141.181 318.5 127 318.5 127C327.064 121.242 332.079 119.255 341.5 118.5C349.894 117.413 354.341 118.438 362 122C403.602 154.255 425.776 174.168 464.5 211L500 189.5L447 108.5L435.5 108C435.5 108 420.367 105.604 394 98.0002C367.634 90.396 373.14 83.9034 345.5 87.0002C317.86 90.097 280.083 123.645 265.5 125Z" fill="white" stroke="white"/>
<path d="M261.5 126.5L303 104L287 118.5L261.5 126.5Z" fill="white" stroke="white"/>
<path d="M336.5 338.5L330 332.5C335.734 325.929 338.573 322.041 346.5 317.5L353 323.5C354.615 325.578 355.547 326.715 356.5 329.5L356 335L353 339.5L348.5 341.5H342L336.5 338.5Z" fill="white" stroke="white"/>
</g>
<defs>
<filter id="filter0_d_18_418" x="0.5" y="0.500244" width="670.333" height="669.701" filterUnits="userSpaceOnUse" color-interpolation-filters="sRGB">
<feFlood flood-opacity="0" result="BackgroundImageFix"/>
<feColorMatrix in="SourceAlpha" type="matrix" values="0 0 0 0 0 0 0 0 0 0 0 0 0 0 0 0 0 0 127 0" result="hardAlpha"/>
<feOffset dy="4"/>
<feGaussianBlur stdDeviation="2"/>
<feComposite in2="hardAlpha" operator="out"/>
<feColorMatrix type="matrix" values="0 0 0 0 0 0 0 0 0 0 0 0 0 0 0 0 0 0 0.25 0"/>
<feBlend mode="normal" in2="BackgroundImageFix" result="effect1_dropShadow_18_418"/>
<feBlend mode="normal" in="SourceGraphic" in2="effect1_dropShadow_18_418" result="shape"/>
</filter>
</defs>
</svg>
